<svg width="245" height="273" viewBox="0 0 245 273" fill="none" xmlns="http://www.w3.org/2000/svg">
<path d="M93.6 29.8912C88.1333 30.8246 80.9333 33.3579 76.9333 35.6246C73.2 37.7579 68.1333 39.8912 65.7333 40.4246C59.3333 41.8912 29.7333 61.8912 26.6667 66.9579C23.2 72.6912 22 81.2246 24 87.2246C27.0667 96.6912 37.2 105.225 45.4667 105.491C47.8667 105.625 49.3333 106.291 49.3333 107.491C49.3333 112.558 57.7333 123.891 65.7333 129.625C68.1333 131.225 68.1333 131.625 65.2 137.625C63.4667 141.091 61.7333 143.891 61.3333 143.891C60.8 143.891 59.4667 141.758 58.2667 139.225C55.2 132.691 50 131.625 45.7333 136.425C43.3333 139.358 42.6667 141.625 42.6667 147.758C42.6667 156.025 42.2667 156.558 32.6667 159.358C30.5333 160.025 28 162.025 27.0667 163.891C19.4667 178.958 4 212.691 4 214.558C4 215.758 4.8 217.891 5.86667 219.358C7.73333 221.758 9.46667 221.891 47.6 221.491C80.1333 221.091 88.4 221.358 93.3333 222.958C104.667 226.691 107.2 226.825 116.133 223.758C124.267 220.958 125.733 220.825 162.533 221.625C186.533 222.158 201.2 222.025 202.8 221.091C209.2 217.758 208.8 215.758 196.533 189.491C190.133 175.758 183.733 163.225 182.267 161.625C180.8 159.891 176 157.625 171.733 156.425L163.867 154.158L175.6 143.358C206.533 115.091 207.6 113.358 200 104.691C195.333 99.3579 189.6 97.6246 185.067 100.025C183.333 100.958 174 109.491 164.267 119.091C147.867 135.225 146.4 136.291 144.4 134.158C142.4 132.158 142.4 131.758 145.867 129.091C152.533 123.891 157.333 117.891 159.467 112.291C161.333 107.358 162.267 106.691 166.933 105.891C172.8 104.825 181.6 97.8912 184.667 91.7579C188.533 84.5579 188.533 78.0246 185.067 70.2912C182 63.6246 180.4 62.1579 165.733 52.2912C156.933 46.4246 147.333 40.8246 144.533 39.8912C141.733 38.9579 136.533 36.6912 133.067 34.9579C127.467 32.1579 109.2 27.6246 104.933 28.0246C104 28.0246 98.9333 28.9579 93.6 29.8912ZM118 35.2246C129.867 38.0246 149.867 47.7579 164.533 57.8912C179.733 68.4246 182 71.3579 182 80.5579C181.867 89.3579 178.267 95.2246 170.933 98.6912C165.733 101.225 164.8 101.358 160.267 99.6246C153.6 97.0912 151.867 92.9579 150.8 75.7579C149.733 60.9579 149.2 58.9579 146.8 60.5579C145.067 61.4912 146.133 85.3579 148.133 93.4912C148.8 96.1579 151.067 99.7579 153.2 101.491C156.8 104.558 156.8 104.825 155.067 109.891C148.133 129.758 115.733 140.825 86.2667 133.358C70.9333 129.358 59.0667 120.425 55.4667 110.025C53.8667 105.358 54 104.958 58 100.558C63.2 95.0912 64 91.4912 64 73.6246C64 63.0912 63.6 59.7579 62.4 60.1579C61.2 60.5579 60.1333 66.2912 59.2 76.9579C58 91.0912 57.3333 93.7579 54.6667 96.5579C48.1333 103.491 35.3333 99.6246 30 89.0912C25.4667 80.5579 28.8 68.0246 36.9333 63.0912C38.9333 61.7579 46 57.2246 52.4 52.9579C58.9333 48.6912 64.8 45.2246 65.6 45.2246C66.4 45.2246 71.4667 43.0912 76.9333 40.4246C92.1333 33.2246 103.467 31.7579 118 35.2246ZM195.333 107.225C198.933 110.691 199.467 113.225 197.333 115.358C196.4 116.291 194.133 114.958 190.267 111.358C186.667 108.025 185.067 105.491 185.867 104.958C188.533 103.091 192.133 103.891 195.333 107.225ZM187.2 114.558C191.333 119.225 193.2 122.558 191.467 122.558C190.933 122.558 178.667 110.291 178.667 109.758C178.667 109.491 179.467 109.225 180.533 109.225C181.467 109.225 184.533 111.625 187.2 114.558ZM182.533 119.358C185.467 122.825 187.733 126.025 187.333 126.558C186.533 127.758 173.733 115.625 174.4 114.158C175.333 112.158 177.2 113.358 182.533 119.358ZM174.4 121.625C175.467 122.825 170.933 127.758 156.4 141.225C145.733 151.091 136.533 159.491 135.867 159.625C135.067 159.891 133.6 159.758 132.267 159.225C130.533 158.558 134.267 154.291 150 139.225C161.067 128.691 170.667 120.025 171.467 119.891C172.267 119.891 173.6 120.691 174.4 121.625ZM180.933 129.358C181.067 130.958 157.733 153.491 144.533 164.425L139.733 168.291L140.267 165.091C140.667 161.491 176.8 126.425 179.333 127.091C180.133 127.225 180.8 128.291 180.933 129.358ZM102.267 139.625C116.267 140.158 119.733 139.758 128.133 137.225C137.467 134.425 137.733 134.425 140.267 136.825C142.667 139.225 142.4 139.625 131.867 149.625C122.667 158.291 121.2 159.358 122 156.158C122.4 154.158 124.4 150.558 126.267 148.158C128.133 145.758 129.333 143.491 129.067 143.225C127.733 141.891 120 148.158 119.333 150.958C118.267 154.825 106.4 159.225 102.533 157.225C101.2 156.425 99.0667 155.891 97.6 155.891C96 155.891 94.4 154.425 93.3333 151.758C91.6 147.625 85.8667 142.825 84.4 144.425C84 144.825 84.5333 146.291 85.7333 147.625C89.3333 151.491 91.0667 158.025 89.4667 160.958C85.4667 168.425 71.3333 167.491 67.2 159.491C66 157.091 64.4 154.825 63.7333 154.425C62.4 153.491 65.2 145.091 69.2 138.425L72.1333 133.491L79.0667 136.291C84.2667 138.291 90.1333 139.091 102.267 139.625ZM54.8 142.158C56.5333 144.958 58.2667 147.491 58.9333 147.891C59.4667 148.291 59.6 149.891 59.2 151.225C58.6667 153.225 57.2 154.025 53.4667 154.158C49.0667 154.425 48.1333 154.025 47.4667 151.491C46.2667 146.825 46.5333 142.691 48.2667 139.891C50.6667 136.158 51.3333 136.425 54.8 142.158ZM63.2 162.291L65.0667 166.025L60.2667 166.291C52 166.691 45.3333 168.025 45.3333 169.225C45.3333 169.891 47.6 170.025 50.4 169.491C56 168.425 67.0667 168.558 76.2667 169.891C80 170.425 84.4 170.158 86.8 169.358C89.6 168.425 91.7333 168.425 93.4667 169.358C96.5333 170.958 96.8 169.491 93.8667 167.225C92 165.891 91.8667 165.358 93.4667 162.825C95.4667 159.625 97.6 159.225 101.467 161.225C103.867 162.558 104 164.291 104 184.558V206.425L98 203.758C83.0667 197.225 64 195.758 38.5333 199.358C30.4 200.425 23.2 201.225 22.6667 200.958C20.8 200.291 41.3333 160.158 43.7333 159.491C44.9333 159.091 49.4667 158.825 53.6 158.691C60.6667 158.558 61.4667 158.825 63.2 162.291ZM132.533 163.891C135.067 163.891 135.867 164.691 136.267 168.025C136.8 171.358 136.4 172.291 133.733 173.358C129.2 175.091 124.4 174.825 123.733 172.825C123.333 172.025 124 168.158 125.067 164.558C126.8 158.691 127.2 158.291 128.133 160.825C128.933 162.825 130.4 163.891 132.533 163.891ZM174.533 171.225C187.333 197.625 189.467 202.958 187.2 202.025C186 201.491 179.2 200.158 172.133 199.091C151.467 195.625 124.267 198.158 111.733 204.691L108 206.691V184.025C108 161.891 108 161.491 111.067 160.691C115.867 159.358 116.8 159.758 118.4 163.225C119.6 165.891 119.467 166.691 117.6 167.891C115.867 168.825 115.733 169.358 117.067 170.291C118.4 171.225 118.4 172.291 117.333 175.225C116.267 178.158 116.267 179.358 117.6 180.691C119.067 182.025 121.067 181.891 128.4 179.891C134.533 178.158 140 177.625 145.733 178.025C157.6 178.825 166.4 179.891 168.667 180.691C169.733 181.225 170.667 180.825 170.667 180.158C170.667 178.425 159.067 176.025 149.067 175.758C144.8 175.491 141.333 175.091 141.467 174.691C141.467 174.291 143.2 172.558 145.333 170.825C148.933 168.025 150 167.758 157.333 168.958C161.733 169.625 165.333 169.625 165.333 169.091C165.333 167.625 161.467 166.558 155.6 166.558H150.133L154 162.558C157.333 159.091 158.8 158.558 163.333 158.825C168.667 159.225 168.667 159.225 174.533 171.225ZM24.4 186.691C16.6667 202.958 13.3333 211.091 14.2667 212.025C15.2 212.958 30.2667 213.491 54.9333 213.625C93.3333 213.891 94.1333 213.891 97.8667 216.825C102.8 220.691 109.2 220.691 114.133 216.825C117.867 213.891 118.667 213.891 156.4 213.758C180 213.758 195.333 213.091 196.133 212.291C197.467 210.958 189.733 192.558 179.2 171.491C175.067 163.491 174.667 159.758 178.4 164.291C181.067 167.491 202.667 214.958 201.867 215.758C201.467 216.158 182.267 216.558 159.333 216.558C121.467 216.558 117.333 216.825 115.067 218.958C111.467 222.158 102.133 221.891 96.5333 218.425C92.1333 215.758 90.9333 215.758 51.3333 216.425C15.2 217.225 10.5333 216.958 9.73333 215.225C9.33333 214.025 13.6 203.491 19.8667 190.558C25.7333 178.158 30.6667 167.358 30.6667 166.691C30.6667 165.625 34 162.825 35.6 162.558C35.7333 162.558 30.6667 173.358 24.4 186.691ZM90.4 204.691C105.733 208.558 102.4 211.358 84.9333 209.091C78.1333 208.158 63.6 208.025 46.4 208.558C28 209.091 18.6667 208.958 18.6667 208.025C18.6667 202.025 70.1333 199.491 90.4 204.691ZM174.533 203.358C186.667 205.091 194 207.758 191.867 209.625C191.6 209.891 183.6 209.625 174 208.958C159.467 207.891 147.333 208.158 118.667 209.758C113.6 210.025 114.133 207.491 119.733 205.491C132.667 200.958 153.2 200.158 174.533 203.358ZM109.6 211.091C110.933 212.025 111.6 213.225 111.067 213.625C110 214.825 102 214.825 100.933 213.625C100 212.691 103.867 209.358 106 209.358C106.8 209.358 108.4 210.158 109.6 211.091Z" fill="#F59E0B"/>
<path d="M78.9334 58.8246C75.2001 62.5579 79.0668 66.4246 83.4668 63.2246C85.4668 61.7579 85.6001 61.2246 84.1334 59.3579C82.0001 56.8246 81.0668 56.6913 78.9334 58.8246Z" fill="#F59E0B"/>
<path d="M125.467 59.0902C124.267 60.5569 124.4 61.3569 126 63.0902C128.667 65.7569 132.267 64.2902 131.733 60.6902C131.2 57.3569 127.733 56.4235 125.467 59.0902Z" fill="#F59E0B"/>
<path d="M71.9998 76.5573C68.2664 80.424 67.9998 86.2907 71.1998 91.0907C76.1331 98.6907 89.3331 93.7573 89.3331 84.2907C89.3331 74.424 78.5331 69.624 71.9998 76.5573ZM84.9331 79.3573C85.9998 82.2907 82.5331 84.2907 80.1331 82.024C79.1998 80.9573 78.7998 79.4907 79.1998 78.6907C80.5331 76.5573 83.9998 76.9573 84.9331 79.3573Z" fill="#F59E0B"/>
<path d="M124.267 76.2919C117.467 83.4919 122.534 94.5586 132.4 94.5586C136.534 94.5586 137.867 93.8919 140 90.1586C146.8 79.3586 132.8 67.0919 124.267 76.2919ZM130.667 79.7586C130.667 81.2253 130 82.8253 129.2 83.3586C127.2 84.5586 124.8 81.7586 125.734 79.3586C126.934 76.2919 130.667 76.6919 130.667 79.7586Z" fill="#F59E0B"/>
<path d="M99.6002 86.1579C97.8668 87.7579 98.6668 91.7579 101.067 93.0913C103.2 94.4246 103.2 94.6913 100.8 96.5579C97.7335 98.9579 94.4002 99.0913 92.4002 97.0913C91.6002 96.2913 90.2668 96.0246 89.3335 96.5579C87.4668 97.6246 91.4668 102.558 94.2668 102.558C95.2002 102.558 96.0002 103.491 96.0002 104.558C96.0002 107.758 102.134 113.225 105.734 113.225C109.334 113.225 114.667 108.158 114.667 104.825C114.667 103.625 115.467 102.558 116.4 102.558C119.2 102.558 122.667 98.0246 121.467 96.1579C120.667 94.8246 120 94.8246 118.667 96.5579C116.534 99.0913 113.334 99.0913 110 96.6913C107.467 94.8246 107.467 94.6913 109.867 92.0246C113.467 88.0246 111.734 85.2246 105.6 85.2246C102.8 85.2246 100 85.6246 99.6002 86.1579ZM104 102.558C104 104.025 104.667 105.225 105.334 105.225C106.134 105.225 106.667 104.025 106.667 102.558C106.667 100.825 107.334 100.158 108.667 100.691C111.2 101.758 111.2 105.758 108.667 107.891C104.534 111.358 97.0668 104.558 100.934 100.825C102.534 99.0913 104 99.8913 104 102.558Z" fill="#F59E0B"/>
<path d="M51.3331 176.557C50.6664 176.824 47.7331 177.357 44.9331 177.891C42.1331 178.291 40.2664 179.091 40.5331 179.757C40.9331 180.291 46.3998 179.891 52.9331 178.957C64.2664 177.224 83.5998 178.024 93.3331 180.691C95.9998 181.357 96.3998 181.224 95.0664 179.891C94.2664 178.957 90.9331 177.757 87.7331 177.091C82.2664 176.024 54.1331 175.624 51.3331 176.557Z" fill="#F59E0B"/>
<path d="M52.0002 186.557C40.8002 188.157 37.3335 188.957 37.3335 190.424C37.3335 191.091 40.1335 190.957 43.7335 190.291C60.1335 187.091 82.0002 188.157 93.7335 192.557C95.0668 193.091 96.0002 192.957 96.0002 192.024C96.0002 188.024 67.7335 184.557 52.0002 186.557Z" fill="#F59E0B"/>
<path d="M133.6 186.558C123.333 188.025 115.733 190.425 116.666 191.892C117.066 192.425 120.133 192.158 123.6 191.092C133.333 188.158 146.4 187.358 159.066 189.092C165.466 190.025 171.6 190.958 172.666 191.358C173.733 191.892 174.666 191.492 174.666 190.825C174.666 187.492 147.2 184.692 133.6 186.558Z" fill="#F59E0B"/>
<path d="M13.6001 108.159C10.2668 111.492 12.2668 118.559 16.6668 118.559C20.6668 118.559 22.9335 115.625 22.4001 110.959C22.1335 108.159 21.2001 107.092 18.6668 106.825C16.8001 106.559 14.5335 107.225 13.6001 108.159ZM19.6001 111.359C20.6668 114.025 17.8668 116.959 16.0001 115.092C14.4001 113.492 15.6001 109.225 17.4668 109.225C18.1335 109.225 19.0668 110.159 19.6001 111.359Z" fill="#F59E0B"/>
<path d="M1.73325 110.157C-0.666754 111.09 -0.400087 117.89 1.99991 119.89C4.66658 122.024 10.6666 119.624 10.6666 116.557C10.6666 110.957 6.66658 108.024 1.73325 110.157ZM6.66658 115.357C6.66658 116.424 5.73325 117.224 4.66658 117.224C2.66658 117.224 1.86658 114.424 3.46658 112.824C4.79991 111.624 6.66658 113.09 6.66658 115.357Z" fill="#F59E0B"/>
<path d="M24.6666 115.89C22.6666 118.157 22.5333 119.09 23.7333 121.89C25.8666 126.69 33.2 125.757 35.2 120.557C37.4666 114.424 29.3333 110.824 24.6666 115.89ZM31.4666 119.757C30.4 121.49 26.6666 121.757 26.6666 120.157C26.6666 119.624 27.3333 118.424 28.2666 117.49C30.1333 115.624 32.8 117.49 31.4666 119.757Z" fill="#F59E0B"/>
<path d="M8 121.757C1.2 123.891 0 124.957 0 129.091C0 133.624 2.26667 135.891 6.93333 135.891C9.33334 135.891 11.3333 136.957 12.8 139.224C16.8 145.357 24.4 144.557 26.1333 137.891C26.8 135.091 27.2 134.957 29.4667 136.291C32.8 138.291 36.5333 136.157 37.0667 131.891C38 126.024 31.0667 124.024 27.0667 128.957C25.6 130.691 25.2 130.424 24.1333 127.491C22.6667 123.757 17.7333 119.757 14.6667 120.024C13.6 120.157 10.5333 120.824 8 121.757ZM20.8 128.691C24.6667 137.757 21.4667 142.691 15.7333 136.557C14 134.691 10.8 132.691 8.53333 132.024C0.4 129.891 4.93333 124.291 15.0667 124.024C18.1333 123.891 19.2 124.691 20.8 128.691ZM34.4 131.624C34.6667 132.557 33.6 133.224 32.1333 133.224C29.3333 133.224 28.5333 131.757 30.2667 130.024C31.4667 128.824 33.7333 129.757 34.4 131.624Z" fill="#F59E0B"/>
<path d="M220.6 145.393C217.267 148.726 219.267 155.793 223.667 155.793C227.667 155.793 229.933 152.86 229.4 148.193C229.133 145.393 228.2 144.326 225.667 144.06C223.8 143.793 221.533 144.46 220.6 145.393ZM226.6 148.593C227.667 151.26 224.867 154.193 223 152.326C221.4 150.726 222.6 146.46 224.467 146.46C225.133 146.46 226.067 147.393 226.6 148.593Z" fill="#F59E0B"/>
<path d="M208.733 147.393C206.333 148.327 206.6 155.127 209 157.127C211.667 159.26 217.667 156.86 217.667 153.793C217.667 148.193 213.667 145.26 208.733 147.393ZM213.667 152.593C213.667 153.66 212.733 154.46 211.667 154.46C209.667 154.46 208.867 151.66 210.467 150.06C211.8 148.86 213.667 150.327 213.667 152.593Z" fill="#F59E0B"/>
<path d="M231.667 153.127C229.667 155.393 229.533 156.327 230.733 159.127C232.867 163.927 240.2 162.993 242.2 157.793C244.467 151.66 236.333 148.06 231.667 153.127ZM238.467 156.993C237.4 158.727 233.667 158.993 233.667 157.393C233.667 156.86 234.333 155.66 235.267 154.727C237.133 152.86 239.8 154.727 238.467 156.993Z" fill="#F59E0B"/>
<path d="M215 158.992C208.2 161.125 207 162.192 207 166.325C207 170.858 209.267 173.125 213.933 173.125C216.333 173.125 218.333 174.192 219.8 176.458C223.8 182.592 231.4 181.792 233.133 175.125C233.8 172.325 234.2 172.192 236.467 173.525C239.8 175.525 243.533 173.392 244.067 169.125C245 163.258 238.067 161.258 234.067 166.192C232.6 167.925 232.2 167.658 231.133 164.725C229.667 160.992 224.733 156.992 221.667 157.258C220.6 157.392 217.533 158.058 215 158.992ZM227.8 165.925C231.667 174.992 228.467 179.925 222.733 173.792C221 171.925 217.8 169.925 215.533 169.258C207.4 167.125 211.933 161.525 222.067 161.258C225.133 161.125 226.2 161.925 227.8 165.925ZM241.4 168.858C241.667 169.792 240.6 170.458 239.133 170.458C236.333 170.458 235.533 168.992 237.267 167.258C238.467 166.058 240.733 166.992 241.4 168.858Z" fill="#F59E0B"/>
<path d="M188.6 1.39297C185.267 4.7263 187.267 11.793 191.667 11.793C195.667 11.793 197.933 8.85964 197.4 4.19297C197.133 1.39297 196.2 0.326301 193.667 0.0596348C191.8 -0.207032 189.533 0.459635 188.6 1.39297ZM194.6 4.59297C195.667 7.25964 192.867 10.193 191 8.3263C189.4 6.7263 190.6 2.45963 192.467 2.45963C193.133 2.45963 194.067 3.39297 194.6 4.59297Z" fill="#F59E0B"/>
<path d="M176.733 3.39322C174.333 4.32655 174.6 11.1266 177 13.1266C179.667 15.2599 185.667 12.8599 185.667 9.79322C185.667 4.19322 181.667 1.25989 176.733 3.39322ZM181.667 8.59322C181.667 9.65989 180.733 10.4599 179.667 10.4599C177.667 10.4599 176.867 7.65989 178.467 6.05989C179.8 4.85989 181.667 6.32656 181.667 8.59322Z" fill="#F59E0B"/>
<path d="M199.667 9.12658C197.667 11.3932 197.533 12.3266 198.733 15.1266C200.867 19.9266 208.2 18.9932 210.2 13.7932C212.467 7.65991 204.333 4.05991 199.667 9.12658ZM206.467 12.9932C205.4 14.7266 201.667 14.9932 201.667 13.3932C201.667 12.8599 202.333 11.6599 203.267 10.7266C205.133 8.85991 207.8 10.7266 206.467 12.9932Z" fill="#F59E0B"/>
<path d="M183 14.9917C176.2 17.1251 175 18.1917 175 22.3251C175 26.8584 177.267 29.1251 181.933 29.1251C184.333 29.1251 186.333 30.1917 187.8 32.4584C191.8 38.5917 199.4 37.7917 201.133 31.1251C201.8 28.3251 202.2 28.1917 204.467 29.5251C207.8 31.5251 211.533 29.3917 212.067 25.1251C213 19.2584 206.067 17.2584 202.067 22.1917C200.6 23.9251 200.2 23.6584 199.133 20.7251C197.667 16.9917 192.733 12.9917 189.667 13.2584C188.6 13.3917 185.533 14.0584 183 14.9917ZM195.8 21.9251C199.667 30.9917 196.467 35.9251 190.733 29.7917C189 27.9251 185.8 25.9251 183.533 25.2584C175.4 23.1251 179.933 17.5251 190.067 17.2584C193.133 17.1251 194.2 17.9251 195.8 21.9251ZM209.4 24.8584C209.667 25.7917 208.6 26.4584 207.133 26.4584C204.333 26.4584 203.533 24.9917 205.267 23.2584C206.467 22.0584 208.733 22.9917 209.4 24.8584Z" fill="#F59E0B"/>
<path d="M194.6 236.391C191.267 239.724 193.267 246.791 197.667 246.791C201.667 246.791 203.933 243.858 203.4 239.191C203.133 236.391 202.2 235.324 199.667 235.058C197.8 234.791 195.533 235.458 194.6 236.391ZM200.6 239.591C201.667 242.258 198.867 245.191 197 243.324C195.4 241.724 196.6 237.458 198.467 237.458C199.133 237.458 200.067 238.391 200.6 239.591Z" fill="#F59E0B"/>
<path d="M182.733 238.391C180.333 239.325 180.6 246.125 183 248.125C185.667 250.258 191.667 247.858 191.667 244.791C191.667 239.191 187.667 236.258 182.733 238.391ZM187.667 243.591C187.667 244.658 186.733 245.458 185.667 245.458C183.667 245.458 182.867 242.658 184.467 241.058C185.8 239.858 187.667 241.325 187.667 243.591Z" fill="#F59E0B"/>
<path d="M205.667 244.125C203.667 246.391 203.533 247.325 204.733 250.125C206.867 254.925 214.2 253.991 216.2 248.791C218.467 242.658 210.333 239.058 205.667 244.125ZM212.467 247.991C211.4 249.725 207.667 249.991 207.667 248.391C207.667 247.858 208.333 246.658 209.267 245.725C211.133 243.858 213.8 245.725 212.467 247.991Z" fill="#F59E0B"/>
<path d="M189 249.99C182.2 252.123 181 253.19 181 257.323C181 261.856 183.267 264.123 187.933 264.123C190.333 264.123 192.333 265.19 193.8 267.456C197.8 273.59 205.4 272.79 207.133 266.123C207.8 263.323 208.2 263.19 210.467 264.523C213.8 266.523 217.533 264.39 218.067 260.123C219 254.256 212.067 252.256 208.067 257.19C206.6 258.923 206.2 258.656 205.133 255.723C203.667 251.99 198.733 247.99 195.667 248.256C194.6 248.39 191.533 249.056 189 249.99ZM201.8 256.923C205.667 265.99 202.467 270.923 196.733 264.79C195 262.923 191.8 260.923 189.533 260.256C181.4 258.123 185.933 252.523 196.067 252.256C199.133 252.123 200.2 252.923 201.8 256.923ZM215.4 259.856C215.667 260.79 214.6 261.456 213.133 261.456C210.333 261.456 209.533 259.99 211.267 258.256C212.467 257.056 214.733 257.99 215.4 259.856Z" fill="#F59E0B"/>
<path d="M13.6001 1.39297C10.2668 4.7263 12.2668 11.793 16.6668 11.793C20.6668 11.793 22.9335 8.85964 22.4001 4.19297C22.1335 1.39297 21.2001 0.326301 18.6668 0.0596348C16.8001 -0.207032 14.5335 0.459635 13.6001 1.39297ZM19.6001 4.59297C20.6668 7.25964 17.8668 10.193 16.0001 8.3263C14.4001 6.7263 15.6001 2.45963 17.4668 2.45963C18.1335 2.45963 19.0668 3.39297 19.6001 4.59297Z" fill="#F59E0B"/>
<path d="M1.73325 3.39322C-0.666754 4.32655 -0.400087 11.1266 1.99991 13.1266C4.66658 15.2599 10.6666 12.8599 10.6666 9.79322C10.6666 4.19322 6.66658 1.25989 1.73325 3.39322ZM6.66658 8.59322C6.66658 9.65989 5.73325 10.4599 4.66658 10.4599C2.66658 10.4599 1.86658 7.65989 3.46658 6.05989C4.79991 4.85989 6.66658 6.32656 6.66658 8.59322Z" fill="#F59E0B"/>
<path d="M24.6666 9.12658C22.6666 11.3932 22.5333 12.3266 23.7333 15.1266C25.8666 19.9266 33.2 18.9932 35.2 13.7932C37.4666 7.65991 29.3333 4.05991 24.6666 9.12658ZM31.4666 12.9932C30.4 14.7266 26.6666 14.9932 26.6666 13.3932C26.6666 12.8599 27.3333 11.6599 28.2666 10.7266C30.1333 8.85991 32.8 10.7266 31.4666 12.9932Z" fill="#F59E0B"/>
<path d="M8 14.9917C1.2 17.1251 0 18.1917 0 22.3251C0 26.8584 2.26667 29.1251 6.93333 29.1251C9.33334 29.1251 11.3333 30.1917 12.8 32.4584C16.8 38.5917 24.4 37.7917 26.1333 31.1251C26.8 28.3251 27.2 28.1917 29.4667 29.5251C32.8 31.5251 36.5333 29.3917 37.0667 25.1251C38 19.2584 31.0667 17.2584 27.0667 22.1917C25.6 23.9251 25.2 23.6584 24.1333 20.7251C22.6667 16.9917 17.7333 12.9917 14.6667 13.2584C13.6 13.3917 10.5333 14.0584 8 14.9917ZM20.8 21.9251C24.6667 30.9917 21.4667 35.9251 15.7333 29.7917C14 27.9251 10.8 25.9251 8.53333 25.2584C0.4 23.1251 4.93333 17.5251 15.0667 17.2584C18.1333 17.1251 19.2 17.9251 20.8 21.9251ZM34.4 24.8584C34.6667 25.7917 33.6 26.4584 32.1333 26.4584C29.3333 26.4584 28.5333 24.9917 30.2667 23.2584C31.4667 22.0584 33.7333 22.9917 34.4 24.8584Z" fill="#F59E0B"/>
<path d="M63.84 259.2C65.6533 259.2 67.1867 259.84 68.44 261.12C69.72 262.373 70.36 263.907 70.36 265.72C70.36 267.507 69.72 269.04 68.44 270.32C67.1867 271.6 65.6533 272.24 63.84 272.24H47.36C45.5467 272.24 44 271.6 42.72 270.32C41.44 269.04 40.8 267.507 40.8 265.72C40.8 263.907 41.44 262.373 42.72 261.12C44 259.84 45.5467 259.2 47.36 259.2H63.84ZM64.52 265.72C64.52 265.213 64.3333 264.787 63.96 264.44C63.6133 264.067 63.1867 263.88 62.68 263.88H48.48C47.9733 263.88 47.5467 264.067 47.2 264.44C46.8533 264.787 46.68 265.213 46.68 265.72C46.68 266.227 46.8533 266.667 47.2 267.04C47.5467 267.387 47.9733 267.56 48.48 267.56H62.68C63.1867 267.56 63.6133 267.387 63.96 267.04C64.3333 266.667 64.52 266.227 64.52 265.72ZM60.08 240C60.8 240 61.4133 240.253 61.92 240.76C62.4267 241.267 62.68 241.88 62.68 242.6V246.6H64.8V242.6C64.8 241.88 65.0533 241.267 65.56 240.76C66.0667 240.253 66.68 240 67.4 240C68.0933 240 68.6933 240.253 69.2 240.76C69.7067 241.267 69.96 241.88 69.96 242.6V255.76C69.96 256.48 69.7067 257.093 69.2 257.6C68.6933 258.107 68.0933 258.36 67.4 258.36C66.68 258.36 66.0667 258.107 65.56 257.6C65.0533 257.093 64.8 256.48 64.8 255.76V251.76H62.68V255.76C62.68 256.48 62.4267 257.093 61.92 257.6C61.4133 258.107 60.8 258.36 60.08 258.36C59.3867 258.36 58.7867 258.107 58.28 257.6C57.7733 257.093 57.52 256.48 57.52 255.76V242.6C57.52 241.88 57.7733 241.267 58.28 240.76C58.7867 240.253 59.3867 240 60.08 240ZM42.68 257.96C41.9333 257.96 41.2933 257.707 40.76 257.2C40.2533 256.667 40 256.027 40 255.28V248C40 245.973 40.72 244.24 42.16 242.8C43.6 241.36 45.3333 240.64 47.36 240.64H53.44C54.16 240.64 54.7733 240.893 55.28 241.4C55.7867 241.907 56.04 242.52 56.04 243.24C56.04 243.96 55.7867 244.573 55.28 245.08C54.7733 245.56 54.16 245.8 53.44 245.8H48.48C47.7333 245.8 47.0933 246.067 46.56 246.6C46.0533 247.107 45.8 247.733 45.8 248.48V252.8H53.44C54.16 252.8 54.7733 253.053 55.28 253.56C55.7867 254.067 56.04 254.667 56.04 255.36C56.04 256.08 55.7867 256.693 55.28 257.2C54.7733 257.707 54.16 257.96 53.44 257.96H42.68ZM96.848 259.2C98.661 259.2 100.194 259.84 101.448 261.12C102.728 262.373 103.368 263.907 103.368 265.72C103.368 267.507 102.728 269.04 101.448 270.32C100.194 271.6 98.661 272.24 96.848 272.24H80.3678C78.5545 272.24 77.0078 271.6 75.7278 270.32C74.4478 269.04 73.8078 267.507 73.8078 265.72C73.8078 263.907 74.4478 262.373 75.7278 261.12C77.0078 259.84 78.5545 259.2 80.3678 259.2H96.848ZM97.528 265.72C97.528 265.213 97.341 264.787 96.968 264.44C96.621 264.067 96.194 263.88 95.688 263.88H81.4878C80.9811 263.88 80.5545 264.067 80.2078 264.44C79.8611 264.787 79.6878 265.213 79.6878 265.72C79.6878 266.227 79.8611 266.667 80.2078 267.04C80.5545 267.387 80.9811 267.56 81.4878 267.56H95.688C96.194 267.56 96.621 267.387 96.968 267.04C97.341 266.667 97.528 266.227 97.528 265.72ZM93.0878 240C93.8078 240 94.4211 240.253 94.928 240.76C95.434 241.267 95.688 241.88 95.688 242.6V246.6H97.808V242.6C97.808 241.88 98.061 241.267 98.568 240.76C99.074 240.253 99.688 240 100.408 240C101.101 240 101.701 240.253 102.208 240.76C102.714 241.267 102.968 241.88 102.968 242.6V255.76C102.968 256.48 102.714 257.093 102.208 257.6C101.701 258.107 101.101 258.36 100.408 258.36C99.688 258.36 99.074 258.107 98.568 257.6C98.061 257.093 97.808 256.48 97.808 255.76V251.76H95.688V255.76C95.688 256.48 95.434 257.093 94.928 257.6C94.4211 258.107 93.8078 258.36 93.0878 258.36C92.3945 258.36 91.7945 258.107 91.2878 257.6C90.7811 257.093 90.5278 256.48 90.5278 255.76V242.6C90.5278 241.88 90.7811 241.267 91.2878 240.76C91.7945 240.253 92.3945 240 93.0878 240ZM75.6878 257.96C74.9411 257.96 74.3011 257.707 73.7678 257.2C73.2611 256.667 73.0078 256.027 73.0078 255.28V248C73.0078 245.973 73.7278 244.24 75.1678 242.8C76.6078 241.36 78.3411 240.64 80.3678 240.64H86.4478C87.1678 240.64 87.7811 240.893 88.2878 241.4C88.7945 241.907 89.0478 242.52 89.0478 243.24C89.0478 243.96 88.7945 244.573 88.2878 245.08C87.7811 245.56 87.1678 245.8 86.4478 245.8H81.4878C80.7411 245.8 80.1011 246.067 79.5678 246.6C79.0611 247.107 78.8078 247.733 78.8078 248.48V252.8H86.4478C87.1678 252.8 87.7811 253.053 88.2878 253.56C88.7945 254.067 89.0478 254.667 89.0478 255.36C89.0478 256.08 88.7945 256.693 88.2878 257.2C87.7811 257.707 87.1678 257.96 86.4478 257.96H75.6878ZM108.536 271.44C107.816 271.44 107.202 271.187 106.696 270.68C106.189 270.173 105.936 269.56 105.936 268.84C105.936 268.147 106.189 267.547 106.696 267.04C107.202 266.533 107.816 266.28 108.536 266.28H118.456V262.52H110.176C109.429 262.52 108.789 262.267 108.256 261.76C107.749 261.227 107.496 260.587 107.496 259.84V251.68C107.496 250.96 107.749 250.347 108.256 249.84C108.789 249.307 109.429 249.04 110.176 249.04H129.456V248.64C129.456 247.92 129.189 247.307 128.656 246.8C128.149 246.267 127.522 246 126.776 246L110.056 245.96C109.362 245.96 108.762 245.72 108.256 245.24C107.749 244.733 107.496 244.12 107.496 243.4C107.496 242.68 107.749 242.067 108.256 241.56C108.762 241.053 109.362 240.8 110.056 240.8L127.896 240.84C129.922 240.84 131.642 241.56 133.056 243C134.496 244.413 135.216 246.133 135.216 248.16V251.52C135.216 252.267 134.949 252.907 134.416 253.44C133.909 253.947 133.296 254.2 132.576 254.2H113.296V257.36H133.016C133.736 257.36 134.349 257.613 134.856 258.12C135.362 258.627 135.616 259.24 135.616 259.96C135.616 260.653 135.362 261.253 134.856 261.76C134.349 262.267 133.736 262.52 133.016 262.52H124.256V266.28H134.176C134.896 266.28 135.509 266.533 136.016 267.04C136.522 267.547 136.776 268.147 136.776 268.84C136.776 269.56 136.522 270.173 136.016 270.68C135.509 271.187 134.896 271.44 134.176 271.44H108.536ZM166.868 266.28C167.588 266.28 168.201 266.533 168.708 267.04C169.215 267.547 169.468 268.147 169.468 268.84C169.468 269.56 169.215 270.173 168.708 270.68C168.201 271.187 167.588 271.44 166.868 271.44H141.228C140.508 271.44 139.895 271.187 139.388 270.68C138.881 270.173 138.628 269.56 138.628 268.84C138.628 268.147 138.881 267.547 139.388 267.04C139.895 266.533 140.508 266.28 141.228 266.28H166.868ZM165.068 263.36C164.268 263.36 163.588 263.08 163.028 262.52C162.468 261.933 162.188 261.24 162.188 260.44V248.6C162.188 247.853 161.921 247.227 161.388 246.72C160.855 246.187 160.228 245.92 159.508 245.92H142.788C142.068 245.92 141.455 245.667 140.948 245.16C140.441 244.653 140.188 244.053 140.188 243.36C140.188 242.64 140.441 242.027 140.948 241.52C141.455 241.013 142.068 240.76 142.788 240.76H160.628C162.655 240.76 164.375 241.48 165.788 242.92C167.228 244.36 167.948 246.093 167.948 248.12V260.44C167.948 261.24 167.668 261.933 167.108 262.52C166.548 263.08 165.868 263.36 165.068 263.36Z" fill="#F59E0B"/>
</svg>
