<svg width="250" height="47" viewBox="0 0 250 47" fill="none" xmlns="http://www.w3.org/2000/svg">
<path d="M23.84 27.2C25.6533 27.2 27.1867 27.84 28.44 29.12C29.72 30.373 30.36 31.907 30.36 33.72C30.36 35.507 29.72 37.04 28.44 38.32C27.1867 39.6 25.6533 40.24 23.84 40.24H7.36C5.5467 40.24 4 39.6 2.72 38.32C1.44 37.04 0.799999 35.507 0.799999 33.72C0.799999 31.907 1.44 30.373 2.72 29.12C4 27.84 5.5467 27.2 7.36 27.2H23.84ZM24.52 33.72C24.52 33.213 24.3333 32.787 23.96 32.44C23.6133 32.067 23.1867 31.88 22.68 31.88H8.48C7.9733 31.88 7.5467 32.067 7.2 32.44C6.8533 32.787 6.68 33.213 6.68 33.72C6.68 34.227 6.8533 34.667 7.2 35.04C7.5467 35.387 7.9733 35.56 8.48 35.56H22.68C23.1867 35.56 23.6133 35.387 23.96 35.04C24.3333 34.667 24.52 34.227 24.52 33.72ZM20.08 8C20.8 8 21.4133 8.25301 21.92 8.76001C22.4267 9.26701 22.68 9.88001 22.68 10.6V14.6H24.8V10.6C24.8 9.88001 25.0533 9.26701 25.56 8.76001C26.0667 8.25301 26.68 8 27.4 8C28.0933 8 28.6933 8.25301 29.2 8.76001C29.7067 9.26701 29.96 9.88001 29.96 10.6V23.76C29.96 24.48 29.7067 25.093 29.2 25.6C28.6933 26.107 28.0933 26.36 27.4 26.36C26.68 26.36 26.0667 26.107 25.56 25.6C25.0533 25.093 24.8 24.48 24.8 23.76V19.76H22.68V23.76C22.68 24.48 22.4267 25.093 21.92 25.6C21.4133 26.107 20.8 26.36 20.08 26.36C19.3867 26.36 18.7867 26.107 18.28 25.6C17.7733 25.093 17.52 24.48 17.52 23.76V10.6C17.52 9.88001 17.7733 9.26701 18.28 8.76001C18.7867 8.25301 19.3867 8 20.08 8ZM2.68 25.96C1.9333 25.96 1.2933 25.707 0.759998 25.2C0.253298 24.667 0 24.027 0 23.28V16C0 13.973 0.72 12.24 2.16 10.8C3.6 9.36 5.3333 8.64 7.36 8.64H13.44C14.16 8.64 14.7733 8.89301 15.28 9.40001C15.7867 9.90701 16.04 10.52 16.04 11.24C16.04 11.96 15.7867 12.573 15.28 13.08C14.7733 13.56 14.16 13.8 13.44 13.8H8.48C7.7333 13.8 7.0933 14.067 6.56 14.6C6.0533 15.107 5.8 15.733 5.8 16.48V20.8H13.44C14.16 20.8 14.7733 21.053 15.28 21.56C15.7867 22.067 16.04 22.667 16.04 23.36C16.04 24.08 15.7867 24.693 15.28 25.2C14.7733 25.707 14.16 25.96 13.44 25.96H2.68ZM56.848 27.2C58.661 27.2 60.194 27.84 61.448 29.12C62.728 30.373 63.368 31.907 63.368 33.72C63.368 35.507 62.728 37.04 61.448 38.32C60.194 39.6 58.661 40.24 56.848 40.24H40.3678C38.5545 40.24 37.0078 39.6 35.7278 38.32C34.4478 37.04 33.8078 35.507 33.8078 33.72C33.8078 31.907 34.4478 30.373 35.7278 29.12C37.0078 27.84 38.5545 27.2 40.3678 27.2H56.848ZM57.528 33.72C57.528 33.213 57.341 32.787 56.968 32.44C56.621 32.067 56.194 31.88 55.688 31.88H41.4878C40.9811 31.88 40.5545 32.067 40.2078 32.44C39.8611 32.787 39.6878 33.213 39.6878 33.72C39.6878 34.227 39.8611 34.667 40.2078 35.04C40.5545 35.387 40.9811 35.56 41.4878 35.56H55.688C56.194 35.56 56.621 35.387 56.968 35.04C57.341 34.667 57.528 34.227 57.528 33.72ZM53.0878 8C53.8078 8 54.4211 8.25301 54.928 8.76001C55.434 9.26701 55.688 9.88001 55.688 10.6V14.6H57.808V10.6C57.808 9.88001 58.061 9.26701 58.568 8.76001C59.074 8.25301 59.688 8 60.408 8C61.101 8 61.701 8.25301 62.208 8.76001C62.714 9.26701 62.968 9.88001 62.968 10.6V23.76C62.968 24.48 62.714 25.093 62.208 25.6C61.701 26.107 61.101 26.36 60.408 26.36C59.688 26.36 59.074 26.107 58.568 25.6C58.061 25.093 57.808 24.48 57.808 23.76V19.76H55.688V23.76C55.688 24.48 55.434 25.093 54.928 25.6C54.4211 26.107 53.8078 26.36 53.0878 26.36C52.3945 26.36 51.7945 26.107 51.2878 25.6C50.7811 25.093 50.5278 24.48 50.5278 23.76V10.6C50.5278 9.88001 50.7811 9.26701 51.2878 8.76001C51.7945 8.25301 52.3945 8 53.0878 8ZM35.6878 25.96C34.9411 25.96 34.3011 25.707 33.7678 25.2C33.2611 24.667 33.0078 24.027 33.0078 23.28V16C33.0078 13.973 33.7278 12.24 35.1678 10.8C36.6078 9.36 38.3411 8.64 40.3678 8.64H46.4478C47.1678 8.64 47.7811 8.89301 48.2878 9.40001C48.7945 9.90701 49.0478 10.52 49.0478 11.24C49.0478 11.96 48.7945 12.573 48.2878 13.08C47.7811 13.56 47.1678 13.8 46.4478 13.8H41.4878C40.7411 13.8 40.1011 14.067 39.5678 14.6C39.0611 15.107 38.8078 15.733 38.8078 16.48V20.8H46.4478C47.1678 20.8 47.7811 21.053 48.2878 21.56C48.7945 22.067 49.0478 22.667 49.0478 23.36C49.0478 24.08 48.7945 24.693 48.2878 25.2C47.7811 25.707 47.1678 25.96 46.4478 25.96H35.6878ZM68.536 39.44C67.816 39.44 67.202 39.187 66.696 38.68C66.189 38.173 65.936 37.56 65.936 36.84C65.936 36.147 66.189 35.547 66.696 35.04C67.202 34.533 67.816 34.28 68.536 34.28H78.456V30.52H70.176C69.429 30.52 68.789 30.267 68.256 29.76C67.749 29.227 67.496 28.587 67.496 27.84V19.68C67.496 18.96 67.749 18.347 68.256 17.84C68.789 17.307 69.429 17.04 70.176 17.04H89.456V16.64C89.456 15.92 89.189 15.307 88.656 14.8C88.149 14.267 87.522 14 86.776 14L70.056 13.96C69.362 13.96 68.762 13.72 68.256 13.24C67.749 12.733 67.496 12.12 67.496 11.4C67.496 10.68 67.749 10.067 68.256 9.56C68.762 9.053 69.362 8.8 70.056 8.8L87.896 8.84C89.922 8.84 91.642 9.56 93.056 11C94.496 12.413 95.216 14.133 95.216 16.16V19.52C95.216 20.267 94.949 20.907 94.416 21.44C93.909 21.947 93.296 22.2 92.576 22.2H73.296V25.36H93.016C93.736 25.36 94.349 25.613 94.856 26.12C95.362 26.627 95.616 27.24 95.616 27.96C95.616 28.653 95.362 29.253 94.856 29.76C94.349 30.267 93.736 30.52 93.016 30.52H84.256V34.28H94.176C94.896 34.28 95.509 34.533 96.016 35.04C96.522 35.547 96.776 36.147 96.776 36.84C96.776 37.56 96.522 38.173 96.016 38.68C95.509 39.187 94.896 39.44 94.176 39.44H68.536ZM126.868 34.28C127.588 34.28 128.201 34.533 128.708 35.04C129.215 35.547 129.468 36.147 129.468 36.84C129.468 37.56 129.215 38.173 128.708 38.68C128.201 39.187 127.588 39.44 126.868 39.44H101.228C100.508 39.44 99.895 39.187 99.388 38.68C98.881 38.173 98.628 37.56 98.628 36.84C98.628 36.147 98.881 35.547 99.388 35.04C99.895 34.533 100.508 34.28 101.228 34.28H126.868ZM125.068 31.36C124.268 31.36 123.588 31.08 123.028 30.52C122.468 29.933 122.188 29.24 122.188 28.44V16.6C122.188 15.853 121.921 15.227 121.388 14.72C120.855 14.187 120.228 13.92 119.508 13.92H102.788C102.068 13.92 101.455 13.667 100.948 13.16C100.441 12.653 100.188 12.053 100.188 11.36C100.188 10.64 100.441 10.027 100.948 9.52C101.455 9.013 102.068 8.76001 102.788 8.76001H120.628C122.655 8.76001 124.375 9.48 125.788 10.92C127.228 12.36 127.948 14.093 127.948 16.12V28.44C127.948 29.24 127.668 29.933 127.108 30.52C126.548 31.08 125.868 31.36 125.068 31.36Z" fill="#F59E0B"/>
<path d="M206.245 0.28428C206.277 6.77155 206.309 13.2588 206.342 19.9427C207.037 19.1638 207.037 19.1638 207.717 18.3749C208.231 17.7706 208.762 17.1794 209.294 16.5886C209.622 16.2238 209.948 15.8571 210.273 15.4895C210.325 15.4314 210.376 15.3732 210.429 15.3133C210.693 15.0153 210.956 14.717 211.219 14.4186C211.53 14.065 211.844 13.7124 212.157 13.3602C212.229 13.2795 212.229 13.2795 212.302 13.1971C213.746 11.5734 215.377 10.4634 217.682 10.158C217.867 10.1505 218.052 10.1471 218.238 10.1473C218.346 10.1471 218.455 10.147 218.566 10.1469C218.684 10.1472 218.801 10.1475 218.922 10.1479C219.047 10.1478 219.172 10.1478 219.301 10.1478C219.642 10.1478 219.983 10.1483 220.324 10.1489C220.681 10.1495 221.039 10.1495 221.396 10.1497C222.071 10.1499 222.747 10.1507 223.422 10.1516C224.191 10.1525 224.961 10.153 225.73 10.1535C227.312 10.1544 228.894 10.156 230.476 10.158C230.476 10.06 230.475 9.96197 230.475 9.861C230.471 8.93699 230.468 8.01299 230.466 7.08897C230.465 6.61394 230.464 6.13891 230.461 5.66388C230.459 5.20536 230.458 4.74685 230.458 4.28832C230.457 4.11348 230.457 3.93864 230.456 3.7638C230.454 3.51871 230.454 3.27364 230.454 3.02855C230.453 2.95644 230.453 2.88433 230.452 2.81004C230.455 2.1226 230.661 1.52203 231.155 0.995896C231.918 0.440606 232.524 0.272579 233.491 0.274181C233.558 0.274171 233.626 0.27416 233.695 0.274149C233.911 0.274215 234.127 0.27489 234.343 0.275593C234.477 0.275724 234.611 0.275815 234.746 0.275864C235.241 0.276329 235.736 0.277571 236.231 0.27872C237.338 0.280555 238.446 0.282389 239.587 0.28428C239.587 3.54259 239.587 6.80091 239.587 10.158C244.874 10.2575 244.874 10.2575 249.635 8.27937C249.726 8.20736 249.726 8.20736 249.819 8.1339C249.865 8.09734 249.911 8.06078 249.958 8.02311C249.967 8.808 249.974 9.59287 249.978 10.3778C249.98 10.7423 249.983 11.1069 249.987 11.4714C249.991 11.8238 249.994 12.1762 249.995 12.5286C249.995 12.6624 249.997 12.7963 249.999 12.9301C250.016 14.0904 249.832 14.8889 248.936 15.7397C247.372 17.0524 244.992 17.2929 242.966 17.2828C242.869 17.2827 242.771 17.2826 242.671 17.2824C242.364 17.2819 242.057 17.2808 241.75 17.2797C241.54 17.2792 241.33 17.2788 241.12 17.2785C240.609 17.2775 240.098 17.276 239.587 17.2741C239.586 19.0534 239.588 20.8326 239.595 22.6118C239.598 23.4381 239.599 24.2643 239.599 25.0905C239.598 25.811 239.599 26.5315 239.603 27.252C239.605 27.6331 239.606 28.0143 239.604 28.3954C239.603 28.755 239.604 29.1144 239.608 29.4739C239.609 29.6052 239.608 29.7364 239.607 29.8676C239.599 30.7213 239.726 31.4106 240.265 32.1291C240.868 32.676 241.483 32.8609 242.329 32.8691C242.397 32.87 242.465 32.8709 242.536 32.8718C242.759 32.8745 242.982 32.8761 243.206 32.8776C243.361 32.8792 243.517 32.881 243.673 32.8828C244.081 32.8873 244.489 32.8909 244.897 32.8942C245.314 32.8978 245.732 32.9023 246.149 32.9068C246.966 32.9154 247.784 32.9229 248.601 32.9297C248.61 33.5901 248.617 34.2504 248.621 34.9109C248.623 35.2176 248.626 35.5243 248.63 35.831C248.635 36.1843 248.637 36.5375 248.639 36.8908C248.641 37 248.643 37.1092 248.645 37.2217C248.645 38.0791 248.428 38.6441 247.797 39.2866C247.517 39.5178 247.205 39.6549 246.856 39.779C246.773 39.8094 246.69 39.8398 246.604 39.8711C246.215 39.9724 245.853 39.9818 245.453 39.9799C245.373 39.9802 245.292 39.9805 245.209 39.9809C244.944 39.9816 244.679 39.9811 244.414 39.9805C244.229 39.9807 244.043 39.9808 243.858 39.981C243.469 39.9813 243.081 39.9809 242.692 39.9801C242.197 39.9791 241.701 39.9797 241.206 39.9807C240.823 39.9814 240.44 39.9812 240.057 39.9807C239.874 39.9806 239.692 39.9807 239.509 39.9811C236.916 39.9858 234.506 39.4577 232.608 37.7331C230.969 36.0993 230.395 34.1199 230.421 31.947C230.421 31.7855 230.421 31.624 230.421 31.4625C230.421 31.0299 230.424 30.5975 230.427 30.1649C230.43 29.7107 230.43 29.2565 230.431 28.8023C230.432 27.9448 230.436 27.0874 230.441 26.2299C230.447 25.2526 230.449 24.2753 230.452 23.298C230.457 21.29 230.465 19.2821 230.476 17.2741C229.098 17.2691 227.719 17.2682 226.341 17.272C225.701 17.2737 225.061 17.2741 224.421 17.2714C223.803 17.2689 223.185 17.2698 222.567 17.2731C222.332 17.2738 222.096 17.2732 221.861 17.2714C221.53 17.269 221.2 17.271 220.87 17.2741C220.724 17.2715 220.724 17.2715 220.575 17.2689C220.181 17.2764 219.919 17.2848 219.607 17.5186C219.434 17.6973 219.284 17.8789 219.136 18.0747C219.06 18.1579 218.984 18.2412 218.906 18.327C218.84 18.4015 218.774 18.476 218.706 18.5528C218.631 18.6366 218.557 18.7205 218.481 18.8068C218.222 19.1003 217.965 19.3951 217.709 19.6901C217.274 20.188 216.834 20.6824 216.395 21.1775C216.229 21.3647 216.063 21.5521 215.898 21.7395C215.844 21.8002 215.79 21.861 215.735 21.9237C215.628 22.0437 215.522 22.1639 215.416 22.2842C215.179 22.5539 214.939 22.8215 214.692 23.0835C214.611 23.1698 214.53 23.2561 214.447 23.3451C214.376 23.4189 214.306 23.4928 214.233 23.5689C214.078 23.7535 214.078 23.7535 214.1 23.9455C214.221 24.1772 214.374 24.3499 214.556 24.546C214.635 24.6323 214.714 24.7186 214.795 24.8076C214.839 24.8547 214.882 24.9019 214.927 24.9505C215.178 25.2262 215.424 25.5062 215.671 25.7857C215.779 25.9078 215.887 26.0299 215.995 26.152C216.16 26.3387 216.325 26.5254 216.491 26.7122C217.255 27.5759 217.255 27.5759 218.021 28.4376C218.534 29.012 219.044 29.5886 219.554 30.165C219.818 30.464 220.083 30.7628 220.347 31.0617C220.667 31.4227 220.987 31.7837 221.306 32.1448C221.829 32.7362 222.353 33.3271 222.88 33.9165C223.222 34.3014 223.564 34.6874 223.905 35.0732C224.205 35.4118 224.505 35.75 224.806 36.0875C225.218 36.5485 225.627 37.0111 226.036 37.4738C226.346 37.824 226.657 38.1737 226.969 38.5226C227.252 38.8406 227.535 39.1591 227.817 39.4788C227.881 39.5515 227.945 39.6242 228.011 39.6991C228.15 39.868 228.15 39.868 228.15 39.9569C226.93 39.9631 225.71 39.9678 224.49 39.9707C223.923 39.9721 223.357 39.974 222.79 39.977C222.243 39.9799 221.695 39.9815 221.148 39.9822C220.94 39.9827 220.731 39.9837 220.523 39.9851C218.035 40.0017 218.035 40.0017 217.064 39.4287C216.989 39.3858 216.915 39.3428 216.838 39.2984C216.398 39.0169 216.048 38.73 215.713 38.3446C215.637 38.2575 215.561 38.1704 215.482 38.0806C215.409 37.9953 215.335 37.9099 215.259 37.8221C215.14 37.6849 215.021 37.5477 214.901 37.4106C214.808 37.303 214.808 37.303 214.713 37.1931C214.413 36.8521 214.109 36.5143 213.805 36.1764C213.385 35.7092 212.967 35.2406 212.556 34.7664C211.919 34.0346 211.272 33.3096 210.625 32.585C210.368 32.2975 210.114 32.0086 209.861 31.7177C209.501 31.3026 209.133 30.8929 208.765 30.4835C208.337 30.0077 207.911 29.5307 207.494 29.0471C207.355 28.8877 207.213 28.73 207.071 28.5731C206.95 28.44 206.95 28.44 206.826 28.3042C206.752 28.2235 206.679 28.1427 206.602 28.0596C206.439 27.8594 206.439 27.8594 206.439 27.6815C206.375 27.6815 206.311 27.6815 206.245 27.6815C206.245 27.7333 206.246 27.785 206.247 27.8383C206.259 29.1013 206.269 30.3644 206.275 31.6275C206.278 32.2383 206.282 32.8491 206.289 33.46C206.295 34.05 206.299 34.64 206.3 35.23C206.301 35.4546 206.303 35.6791 206.306 35.9037C206.339 38.2971 206.339 38.2971 205.47 39.1736C205.282 39.3451 205.114 39.4725 204.888 39.6011C204.81 39.6455 204.81 39.6455 204.731 39.6907C203.99 40.0532 203.218 40.002 202.404 39.9916C202.249 39.991 202.093 39.9905 201.938 39.9901C201.532 39.9888 201.127 39.9853 200.721 39.9813C200.306 39.9777 199.89 39.9761 199.475 39.9743C198.662 39.9705 197.85 39.9644 197.037 39.9569C197.03 35.2013 197.025 30.4457 197.022 25.69C197.022 25.1287 197.021 24.5673 197.021 24.0059C197.021 23.8941 197.021 23.7824 197.021 23.6672C197.02 21.8574 197.017 20.0475 197.015 18.2376C197.012 16.3807 197.01 14.5237 197.01 12.6667C197.009 11.5208 197.008 10.3749 197.006 9.22894C197.004 8.44324 197.004 7.65755 197.004 6.87185C197.004 6.41847 197.004 5.96511 197.002 5.51174C197.001 5.09645 197.001 4.68119 197.002 4.26591C197.002 4.11589 197.002 3.96586 197.001 3.81584C196.995 2.8278 197.003 1.88832 197.716 1.08485C199.79 -0.734373 204.407 0.28428 206.245 0.28428Z" fill="#EC1B24"/>
<path d="M206.245 0.28428C206.277 6.77155 206.309 13.2588 206.342 19.9427C206.726 19.5464 206.726 19.5464 207.117 19.1421C209.762 17.1674 213.266 17.2439 216.478 17.2619C216.844 17.2638 217.211 17.2645 217.577 17.2654C218.291 17.2673 219.004 17.2703 219.717 17.2741C219.572 17.5492 219.414 17.7708 219.203 18.008C219.133 18.0862 219.064 18.1644 218.993 18.245C218.912 18.3355 218.831 18.4261 218.748 18.5195C218.652 18.6276 218.557 18.7358 218.461 18.844C218.192 19.1483 217.923 19.4523 217.653 19.7562C217.388 20.0554 217.123 20.3549 216.858 20.6543C216.754 20.7723 216.649 20.8904 216.545 21.0084C216.33 21.2513 216.115 21.4943 215.9 21.7374C215.845 21.7985 215.791 21.8595 215.736 21.9225C215.629 22.043 215.523 22.1636 215.416 22.2844C215.179 22.554 214.939 22.8215 214.692 23.0835C214.611 23.1698 214.53 23.2561 214.447 23.3451C214.376 23.4189 214.306 23.4928 214.233 23.5689C214.078 23.7535 214.078 23.7535 214.1 23.9455C214.221 24.1772 214.374 24.3499 214.556 24.546C214.635 24.6323 214.714 24.7186 214.795 24.8076C214.839 24.8547 214.882 24.9019 214.927 24.9505C215.178 25.2262 215.424 25.5062 215.671 25.7857C215.779 25.9078 215.887 26.0299 215.995 26.152C216.16 26.3387 216.325 26.5254 216.491 26.7122C217.255 27.5759 217.255 27.5759 218.021 28.4376C218.534 29.012 219.044 29.5886 219.554 30.165C219.818 30.464 220.083 30.7628 220.347 31.0617C220.667 31.4227 220.987 31.7837 221.306 32.1448C221.829 32.7362 222.353 33.3271 222.88 33.9165C223.222 34.3014 223.564 34.6874 223.905 35.0732C224.205 35.4118 224.505 35.75 224.806 36.0875C225.218 36.5485 225.627 37.0111 226.036 37.4738C226.346 37.824 226.657 38.1737 226.969 38.5226C227.252 38.8406 227.535 39.1591 227.817 39.4788C227.881 39.5515 227.945 39.6242 228.011 39.6991C228.15 39.868 228.15 39.868 228.15 39.9569C226.93 39.9631 225.71 39.9678 224.49 39.9707C223.923 39.9721 223.357 39.974 222.79 39.977C222.243 39.9799 221.695 39.9815 221.148 39.9822C220.94 39.9827 220.731 39.9837 220.523 39.9851C218.035 40.0017 218.035 40.0017 217.064 39.4287C216.989 39.3858 216.915 39.3428 216.838 39.2984C216.398 39.0169 216.048 38.73 215.713 38.3446C215.637 38.2575 215.561 38.1704 215.482 38.0806C215.409 37.9953 215.335 37.9099 215.259 37.8221C215.14 37.6849 215.021 37.5477 214.901 37.4106C214.808 37.303 214.808 37.303 214.713 37.1931C214.413 36.8521 214.109 36.5143 213.805 36.1764C213.385 35.7092 212.967 35.2406 212.556 34.7664C211.919 34.0346 211.272 33.3096 210.625 32.585C210.368 32.2975 210.113 32.0086 209.861 31.7177C209.501 31.3026 209.133 30.8929 208.765 30.4835C208.337 30.0077 207.911 29.5307 207.494 29.0471C207.355 28.8877 207.213 28.73 207.071 28.5731C206.95 28.44 206.95 28.44 206.826 28.3042C206.752 28.2235 206.679 28.1427 206.602 28.0596C206.439 27.8594 206.439 27.8594 206.439 27.6815C206.375 27.6815 206.311 27.6815 206.245 27.6815C206.245 27.7333 206.246 27.785 206.247 27.8383C206.259 29.1013 206.269 30.3644 206.275 31.6275C206.278 32.2383 206.282 32.8491 206.289 33.46C206.295 34.05 206.299 34.64 206.3 35.23C206.301 35.4546 206.303 35.6791 206.306 35.9037C206.339 38.2971 206.339 38.2971 205.47 39.1736C205.282 39.3451 205.114 39.4725 204.888 39.6011C204.81 39.6455 204.81 39.6455 204.731 39.6907C203.99 40.0532 203.218 40.002 202.404 39.9916C202.249 39.991 202.093 39.9905 201.938 39.9901C201.532 39.9888 201.127 39.9853 200.721 39.9813C200.306 39.9777 199.89 39.9761 199.475 39.9743C198.662 39.9705 197.85 39.9644 197.037 39.9569C197.03 35.2013 197.025 30.4457 197.022 25.69C197.022 25.1287 197.021 24.5673 197.021 24.0059C197.021 23.8941 197.021 23.7824 197.021 23.6672C197.02 21.8574 197.017 20.0475 197.015 18.2376C197.012 16.3807 197.01 14.5237 197.01 12.6667C197.009 11.5208 197.008 10.3749 197.006 9.22894C197.004 8.44324 197.004 7.65755 197.004 6.87185C197.004 6.41847 197.004 5.96511 197.002 5.51174C197.001 5.09645 197.001 4.68119 197.002 4.26591C197.002 4.11589 197.002 3.96586 197.001 3.81584C196.995 2.8278 197.003 1.88832 197.716 1.08485C199.79 -0.734373 204.407 0.28428 206.245 0.28428Z" fill="#010101"/>
<path d="M230.476 17.2734C233.483 17.2734 236.489 17.2734 239.587 17.2734C239.587 18.2563 239.588 19.2393 239.588 20.2519C239.589 20.8754 239.591 21.4989 239.593 22.1224C239.597 23.1115 239.6 24.1006 239.599 25.0898C239.598 25.8103 239.6 26.5308 239.603 27.2513C239.605 27.6324 239.606 28.0136 239.605 28.3947C239.603 28.7543 239.605 29.1137 239.608 29.4733C239.609 29.6045 239.609 29.7357 239.607 29.8669C239.6 30.7206 239.726 31.4099 240.266 32.1284C240.868 32.6753 241.484 32.8602 242.329 32.8684C242.397 32.8693 242.466 32.8702 242.536 32.8711C242.759 32.8739 242.983 32.8754 243.206 32.8769C243.362 32.8785 243.517 32.8803 243.673 32.8821C244.081 32.8867 244.489 32.8902 244.898 32.8935C245.315 32.8971 245.732 32.9016 246.149 32.9061C246.966 32.9147 247.784 32.9222 248.601 32.929C248.61 33.5894 248.617 34.2497 248.621 34.9102C248.623 35.2169 248.626 35.5236 248.63 35.8303C248.635 36.1836 248.637 36.5368 248.639 36.8902C248.641 36.9993 248.643 37.1085 248.645 37.221C248.645 38.0784 248.429 38.6434 247.797 39.2859C247.518 39.5171 247.205 39.6543 246.857 39.7783C246.773 39.8087 246.69 39.8391 246.604 39.8704C246.216 39.9717 245.854 39.9812 245.453 39.9792C245.373 39.9795 245.292 39.9799 245.21 39.9802C244.945 39.981 244.68 39.9804 244.415 39.9798C244.229 39.98 244.044 39.9801 243.858 39.9804C243.47 39.9806 243.081 39.9802 242.692 39.9794C242.197 39.9784 241.702 39.979 241.206 39.98C240.823 39.9807 240.44 39.9805 240.057 39.98C239.874 39.9799 239.692 39.98 239.509 39.9805C236.916 39.9851 234.506 39.457 232.609 37.7324C230.969 36.0986 230.395 34.1192 230.421 31.9463C230.421 31.7848 230.421 31.6233 230.421 31.4618C230.421 31.0293 230.424 30.5968 230.427 30.1642C230.43 29.71 230.43 29.2558 230.431 28.8016C230.433 27.9442 230.437 27.0867 230.441 26.2292C230.448 25.0687 230.45 23.9081 230.453 22.7476C230.458 20.9228 230.467 19.0982 230.476 17.2734Z" fill="black"/>
<path d="M233.491 0.27347C233.558 0.273459 233.625 0.273449 233.695 0.273438C233.911 0.273503 234.127 0.274179 234.343 0.274882C234.477 0.275013 234.611 0.275103 234.745 0.275153C235.24 0.275618 235.736 0.27686 236.231 0.278009C237.338 0.279843 238.446 0.281678 239.587 0.283568C239.587 3.51253 239.587 6.74149 239.587 10.0683C236.58 10.0683 233.573 10.0683 230.476 10.0683C230.472 8.78772 230.468 7.50714 230.464 6.18776C230.462 5.78396 230.46 5.38015 230.458 4.96411C230.457 4.46964 230.457 4.46964 230.457 4.23789C230.457 4.07661 230.456 3.91533 230.455 3.75406C230.454 3.50926 230.454 3.26448 230.454 3.01967C230.453 2.94826 230.452 2.87684 230.452 2.80327C230.454 2.11844 230.662 1.51907 231.154 0.995185C231.918 0.439894 232.523 0.271867 233.491 0.27347Z" fill="black"/>
<path d="M154.98 35.22L156.6 29.46H160.02L157.05 39H153.72L151.92 33.24L150.12 39H146.79L143.82 29.46H147.24L148.86 35.22L150.48 29.46H153.36L154.98 35.22ZM164.5 29.82V39H161.35V32.25H160V29.82H164.5ZM161.35 26.22H164.5V28.74H161.35V26.22ZM172.768 39C171.604 39.12 170.464 39.18 169.348 39.18C168.532 39.18 167.878 38.934 167.386 38.442C166.894 37.95 166.648 37.296 166.648 36.48V31.89H165.568V29.46H166.648L167.008 27.3H169.798V29.46H172.048V31.89H169.798V36.03C169.798 36.21 169.858 36.36 169.978 36.48C170.098 36.6 170.248 36.66 170.428 36.66H172.768V39ZM176.987 29.64C178.151 29.4 179.171 29.28 180.047 29.28H180.857C181.673 29.28 182.327 29.526 182.819 30.018C183.311 30.51 183.557 31.164 183.557 31.98V39H180.407V32.34C180.407 32.16 180.347 32.01 180.227 31.89C180.107 31.77 179.957 31.71 179.777 31.71H179.147C178.691 31.71 178.271 31.734 177.887 31.782C177.515 31.83 177.215 31.866 176.987 31.89V39H173.837V26.4H176.987V29.64Z" fill="#F59E0B"/>
</svg>
