<svg width="185" height="196" viewBox="0 0 185 196" fill="none" xmlns="http://www.w3.org/2000/svg">
<path d="M121.251 0.0396451C121.203 0.0898825 120.628 0.156866 119.957 0.207103C117.273 0.391307 113.279 2.09938 110.403 4.27633C108.741 5.53227 105.977 8.16136 104.955 9.46753C103.485 11.3096 102.319 12.9172 102.015 13.4865C101.871 13.7545 101.424 14.4913 101.025 15.1444C100.625 15.7807 100.162 16.618 99.9861 16.9864C99.8103 17.3548 99.5866 17.8069 99.4748 18.0079C98.4842 19.7997 96.7587 24.2708 95.9279 27.2013C94.5859 31.9572 93.8989 37.0311 93.8829 42.3563C93.8509 49.557 95.177 56.0711 97.8132 61.7814C99.5547 65.5492 102.415 69.2836 105.035 71.2261C106.233 72.0969 108.869 73.671 109.157 73.671C109.269 73.671 109.428 73.7379 109.524 73.8217C109.668 73.9724 111.553 74.5752 112.384 74.7594C112.656 74.8097 113.662 74.8934 114.653 74.9604C121.699 75.3623 128.76 71.2093 134.368 63.3723C138.826 57.1429 142.341 47.5977 143.14 39.5932C143.22 38.756 143.315 37.8182 143.363 37.5C143.411 37.1818 143.491 35.4068 143.539 33.5648C143.635 30.2993 143.427 26.6822 142.996 24.3546C142.916 23.8857 142.756 23.0316 142.66 22.4288C141.718 17.1204 139.417 11.7952 136.222 7.55851C133.585 4.05864 129.751 1.47978 125.453 0.324324C124.766 0.14012 121.379 -0.0943214 121.251 0.0396451Z" fill="#E0AB4A"/>
<path d="M56.3853 1.58034C51.6242 2.70231 47.8537 5.24766 44.9459 9.2834C44.1151 10.4389 42.4854 13.1014 42.4854 13.3024C42.4854 13.3359 42.2777 13.8383 42.0221 14.4244C40.5682 17.74 39.4978 22.0102 39.1623 25.9455C38.9386 28.4406 39.0664 35.4571 39.354 37.5001C40.025 42.1387 41.3671 47.1959 43.0287 51.2986C44.3707 54.6311 47.2306 59.7888 48.8922 61.882C49.1957 62.2504 49.6591 62.8532 49.9147 63.2217C50.7455 64.3436 53.5255 67.1737 55.1072 68.4798C56.4972 69.6353 58.3505 70.9917 58.5263 70.9917C58.5742 70.9917 58.9257 71.2094 59.3091 71.4773C59.6766 71.762 60.2837 72.0802 60.6352 72.2142C60.9707 72.3481 61.7536 72.6495 62.3767 72.9007C65.4602 74.1064 68.6876 74.5251 72.0427 74.1399C74.7428 73.8217 78.4974 72.0132 80.7661 69.9367C84.5526 66.4703 86.9492 62.2336 88.6427 56.0042C89.2818 53.5928 89.7611 50.3274 89.8889 47.4638C89.9209 46.2581 89.9688 45.2032 89.9688 45.1194C90.0007 44.4663 89.7451 40.012 89.6013 38.9235C89.4575 37.768 88.9782 34.7203 88.7545 33.5146C88.5468 32.4931 87.5723 29.1272 86.8693 27.034C85.5112 23.0485 83.6739 19.2472 81.0057 14.977C80.4785 14.1397 78.1938 11.2427 77.0595 10.0035C74.1676 6.82177 70.0775 3.89126 66.7703 2.63532C64.262 1.68081 63.1116 1.47986 60.2198 1.39613C58.1428 1.3459 57.1522 1.39613 56.3853 1.58034Z" fill="#E0AB4A"/>
<path d="M162.392 45.8728C158.142 46.4589 154.004 48.7698 150.122 52.7218C149.515 53.3247 148.444 54.5638 147.757 55.4681C147.054 56.3891 146.399 57.2097 146.319 57.3102C146.128 57.5446 144.961 59.4369 144.434 60.3579C142.006 64.6448 139.497 70.958 138.666 74.843C136.845 83.4504 136.701 84.6561 136.701 91.5051C136.717 97.2657 136.861 98.8733 137.804 103.478C138.027 104.533 138.235 105.588 138.283 105.823C138.65 107.799 140.36 112.638 141.334 114.531C144.13 119.923 146.735 122.837 150.809 125.198C152.934 126.437 156.353 127.224 158.653 127.023C162.823 126.655 166.866 124.712 170.684 121.229C171.77 120.241 173.879 117.796 175.014 116.205C175.445 115.602 175.861 115.033 175.924 114.949C176.755 113.861 178.784 109.992 180.015 107.162C180.877 105.186 182.267 101.184 182.619 99.7105C182.683 99.4259 182.938 98.3374 183.21 97.2824C183.785 94.9715 184.089 93.2634 184.504 90.2492C184.951 86.967 184.999 86.2302 184.999 81.2734C185.015 75.831 184.808 73.5368 183.833 68.3959C183.529 66.738 182.267 62.5349 181.644 61.0277C181.277 60.1569 179.711 56.7743 179.439 56.3222C178.289 54.2624 175.749 51.0807 174.215 49.7578C172.729 48.4851 169.006 46.3751 168.24 46.3751C168.064 46.3751 167.888 46.3082 167.84 46.2412C167.792 46.1575 167.521 46.0905 167.233 46.0737C166.945 46.057 166.322 45.9732 165.843 45.8728C164.884 45.6886 163.814 45.6886 162.392 45.8728Z" fill="#E0AB4A"/>
<path d="M18.6797 49.7913C14.1582 50.5281 11.2664 52.0854 8.05502 55.4848C6.24963 57.3939 4.85964 59.3866 3.77321 61.6138C3.42172 62.3004 3.0862 62.9367 3.00632 63.0205C2.92643 63.1209 2.86253 63.2884 2.86253 63.4056C2.86253 63.5396 2.71873 63.9582 2.52701 64.3434C2.35126 64.7285 2.17552 65.1639 2.14356 65.3146C2.11161 65.4653 1.87196 66.3361 1.60035 67.2404C0.993228 69.3504 0.849436 70.0202 0.370129 73.0847C0.0346139 75.2951 -0.0133168 76.1157 0.00266012 79.783C0.00266012 82.2949 0.0985215 84.8402 0.242314 86.1464C0.737597 90.6008 2.39919 97.0144 4.1247 101C6.07388 105.538 7.49583 108.117 9.94029 111.55C14.8132 118.382 21.236 122.97 27.6906 124.193C30.8061 124.779 33.7938 124.545 36.9412 123.473C40.568 122.217 44.4344 118.918 46.8629 114.999C49.6908 110.428 51.3045 105.304 51.9915 98.7895C52.0873 97.835 52.0873 91.3544 51.9755 89.9142C51.8637 88.3903 51.4483 85.3426 51.1767 84.0867C51.0648 83.5173 50.921 82.7972 50.8731 82.4958C50.7772 81.9097 49.8666 78.661 49.2754 76.7688C48.3967 73.989 46.3197 69.4173 44.6741 66.6375C43.8592 65.2644 41.6225 61.865 41.3669 61.6138C41.3189 61.5636 40.9515 61.1114 40.552 60.6091C38.6987 58.3149 36.398 56.0877 34.0974 54.3964C32.3719 53.1237 28.5534 51.0472 27.5468 50.8295C27.4669 50.796 26.8918 50.6286 26.2687 50.4444C23.8881 49.6908 20.8525 49.4396 18.6797 49.7913Z" fill="#E0AB4A"/>
<path d="M91.5341 77.3047C86.2458 77.6229 81.3408 79.6659 77.075 83.2997C75.5412 84.6059 74.311 86.0126 73.9595 86.8331C73.7998 87.2182 73.4802 87.9718 73.2406 88.5077C73.0009 89.0435 72.6015 89.9646 72.3459 90.5339C70.7961 94.084 69.8854 96.0935 69.5978 96.6126C69.47 96.8471 68.9588 97.9021 68.4475 98.9571C67.9522 100.012 66.9776 102.055 66.2906 103.478C65.1882 105.789 61.6733 112.521 60.6188 114.33C60.523 114.48 60.2513 114.983 59.9957 115.452C59.7241 115.904 59.3247 116.59 59.085 116.959C58.8614 117.327 58.43 118.064 58.1584 118.583C57.3116 120.241 52.1191 128.58 49.7226 132.147C49.1314 133.035 48.2846 134.307 47.8373 134.961C47.4059 135.63 46.7509 136.551 46.3994 137.02C46.0479 137.489 45.4727 138.31 45.1212 138.846C44.3543 139.984 40.6477 145.092 40.1524 145.678C38.4429 147.687 36.3819 150.651 35.8067 151.891C33.7137 156.462 32.7551 161.402 32.9468 166.627C33.0746 169.742 33.1226 170.16 33.6498 172.722C34.5765 177.227 36.2381 181.162 38.7145 184.779C39.1618 185.416 39.6411 186.069 39.769 186.219C39.8968 186.353 40.5039 187.023 41.111 187.693C44.8017 191.813 49.9303 194.659 55.3464 195.597C57.0879 195.899 57.8388 195.932 59.8999 195.865C62.8875 195.748 64.2615 195.463 68.3037 194.09C72.25 192.767 77.8579 191.327 80.5101 190.959C80.8136 190.908 81.7403 190.774 82.5391 190.624C83.3539 190.49 84.3605 190.339 84.7759 190.305C85.2073 190.272 86.1499 190.171 86.9008 190.088C88.9618 189.87 95.6721 189.904 97.845 190.155C98.8995 190.272 100.273 190.406 100.881 190.473C101.504 190.54 102.51 190.691 103.117 190.825C103.74 190.959 104.843 191.193 105.594 191.327C106.345 191.461 107.207 191.645 107.511 191.729C107.815 191.813 109.109 192.164 110.387 192.499C112.656 193.085 115.883 194.107 117.529 194.743C120.9 196.049 127.227 196.401 131.365 195.497C136.397 194.408 141.845 191.377 145.536 187.626C151.799 181.263 155.01 174.531 156.225 165.27C156.48 163.345 156.304 157.065 155.937 154.838C155.234 150.651 154.084 146.984 152.39 143.551C151.863 142.496 147.885 136.016 147.629 135.798C147.565 135.748 147.054 134.994 146.495 134.123C145.935 133.252 144.817 131.544 144.018 130.355C143.203 129.15 142.197 127.643 141.765 126.99C141.334 126.336 140.583 125.248 140.088 124.561C139.321 123.473 137.404 120.743 136.621 119.588C136.477 119.37 135.918 118.566 135.375 117.83C134.847 117.076 133.873 115.703 133.218 114.782C131.668 112.605 129.144 109.222 125.645 104.634C124.367 102.976 123.328 101.636 120.293 97.8686C119.845 97.316 119.43 96.7801 119.366 96.6964C118.934 96.127 115.819 92.376 115.196 91.6726C114.796 91.2038 113.966 90.2325 113.359 89.4957C108.07 82.9816 106.297 81.4744 101.28 79.1468C98.6119 77.9076 94.4419 77.1205 91.5341 77.3047Z" fill="#E0AB4A"/>
</svg>
