<svg width="40" height="40" viewBox="0 0 40 40" fill="none" xmlns="http://www.w3.org/2000/svg">
<g clip-path="url(#clip0_91_46199)">
<circle cx="20" cy="20" r="20" fill="#D9D9D9"/>
</g>
<path d="M18.4895 9.01506C18.4107 9.03513 18.0067 9.10538 17.6027 9.1656C16.2134 9.39644 14.9127 9.92838 13.7894 10.7313L13.1687 11.1629L12.8041 11.0023C12.5381 10.8919 12.2326 10.8618 11.7104 10.8919C11.1192 10.932 10.8433 11.0123 10.1338 11.3736C9.41455 11.7349 9.10909 11.9758 8.28141 12.8189C6.39941 14.7459 5.11847 17.265 5.01009 19.2623C4.95097 20.286 5.14803 20.9183 5.69982 21.5607C6.58663 22.5944 7.90698 22.8554 9.25689 22.2632C9.40469 22.203 9.4244 22.2532 9.4244 22.7851C9.4244 24.3207 9.79883 26.0871 10.3703 27.3216C10.8334 28.2951 11.9075 29.4393 12.8928 30.0114C14.2624 30.8143 16.2232 31.3061 18.2432 31.3663C18.9822 31.3864 19.2285 31.3663 19.2187 31.2659C19.2088 31.2057 19.199 30.724 19.1891 30.2121C19.1792 29.3088 19.1694 29.2888 18.8935 29.1181C18.5191 28.9074 18.2629 28.4959 18.2629 28.1145C18.2629 27.5524 19.1103 27.1108 19.869 27.2815C20.3025 27.3818 20.7558 27.8034 20.7558 28.1145C20.7558 28.4357 20.4109 28.9676 20.0463 29.1884C19.7704 29.349 19.7704 29.359 19.7704 30.4128V31.4667L20.6868 31.4065C23.4852 31.1957 25.2194 30.6838 26.7072 29.5999C28.54 28.2751 29.279 26.5488 29.5844 22.9056L29.6337 22.2431L30.2446 22.4338C31.3285 22.7851 32.3828 22.5141 33.2006 21.6811C34.2746 20.5871 34.2648 18.7705 33.1809 16.432C31.9197 13.7422 30.0574 11.7349 28.1951 11.0625C27.5743 10.8417 26.5693 10.8116 26.1259 11.0123C25.85 11.1328 25.7909 11.1127 25.2489 10.7413C23.7019 9.67746 21.8495 9.08531 19.869 9.01506C19.1891 8.99498 18.5683 8.99498 18.4895 9.01506ZM15.1295 20.6273C15.7207 21.2596 15.5138 23.307 14.8635 23.3973C14.6861 23.4274 14.6073 23.3472 14.4496 22.9959C14.1343 22.2833 14.223 21.0588 14.627 20.5771C14.8241 20.3563 14.893 20.3563 15.1295 20.6273ZM24.3227 20.5771C24.6183 20.9284 24.707 21.2295 24.707 21.9119C24.707 22.7952 24.4804 23.3672 24.1059 23.3672C23.495 23.3672 23.2783 21.37 23.8202 20.6674C24.0567 20.3563 24.1256 20.3462 24.3227 20.5771Z" fill="#6A6A6B"/>
<defs>
<clipPath id="clip0_91_46199">
<rect width="40" height="40" fill="white"/>
</clipPath>
</defs>
</svg>
