<svg width="132" height="35" viewBox="0 0 132 35" fill="none" xmlns="http://www.w3.org/2000/svg">
<path d="M24.84 21.2C26.6533 21.2 28.1867 21.84 29.44 23.12C30.72 24.373 31.36 25.907 31.36 27.72C31.36 29.507 30.72 31.04 29.44 32.32C28.1867 33.6 26.6533 34.24 24.84 34.24H8.36C6.5467 34.24 5 33.6 3.72 32.32C2.44 31.04 1.8 29.507 1.8 27.72C1.8 25.907 2.44 24.373 3.72 23.12C5 21.84 6.5467 21.2 8.36 21.2H24.84ZM25.52 27.72C25.52 27.213 25.3333 26.787 24.96 26.44C24.6133 26.067 24.1867 25.88 23.68 25.88H9.48C8.9733 25.88 8.5467 26.067 8.2 26.44C7.8533 26.787 7.68 27.213 7.68 27.72C7.68 28.227 7.8533 28.667 8.2 29.04C8.5467 29.387 8.9733 29.56 9.48 29.56H23.68C24.1867 29.56 24.6133 29.387 24.96 29.04C25.3333 28.667 25.52 28.227 25.52 27.72ZM21.08 2C21.8 2 22.4133 2.25301 22.92 2.76001C23.4267 3.26701 23.68 3.88001 23.68 4.60001V8.60001H25.8V4.60001C25.8 3.88001 26.0533 3.26701 26.56 2.76001C27.0667 2.25301 27.68 2 28.4 2C29.0933 2 29.6933 2.25301 30.2 2.76001C30.7067 3.26701 30.96 3.88001 30.96 4.60001V17.76C30.96 18.48 30.7067 19.093 30.2 19.6C29.6933 20.107 29.0933 20.36 28.4 20.36C27.68 20.36 27.0667 20.107 26.56 19.6C26.0533 19.093 25.8 18.48 25.8 17.76V13.76H23.68V17.76C23.68 18.48 23.4267 19.093 22.92 19.6C22.4133 20.107 21.8 20.36 21.08 20.36C20.3867 20.36 19.7867 20.107 19.28 19.6C18.7733 19.093 18.52 18.48 18.52 17.76V4.60001C18.52 3.88001 18.7733 3.26701 19.28 2.76001C19.7867 2.25301 20.3867 2 21.08 2ZM3.68 19.96C2.9333 19.96 2.2933 19.707 1.76 19.2C1.2533 18.667 1 18.027 1 17.28V10C1 7.973 1.72 6.24 3.16 4.8C4.6 3.36 6.3333 2.64 8.36 2.64H14.44C15.16 2.64 15.7733 2.89301 16.28 3.40001C16.7867 3.90701 17.04 4.52001 17.04 5.24001C17.04 5.96001 16.7867 6.573 16.28 7.08C15.7733 7.56 15.16 7.8 14.44 7.8H9.48C8.7333 7.8 8.0933 8.06701 7.56 8.60001C7.0533 9.10701 6.8 9.733 6.8 10.48V14.8H14.44C15.16 14.8 15.7733 15.053 16.28 15.56C16.7867 16.067 17.04 16.667 17.04 17.36C17.04 18.08 16.7867 18.693 16.28 19.2C15.7733 19.707 15.16 19.96 14.44 19.96H3.68ZM57.848 21.2C59.661 21.2 61.194 21.84 62.448 23.12C63.728 24.373 64.368 25.907 64.368 27.72C64.368 29.507 63.728 31.04 62.448 32.32C61.194 33.6 59.661 34.24 57.848 34.24H41.3678C39.5545 34.24 38.0078 33.6 36.7278 32.32C35.4478 31.04 34.8078 29.507 34.8078 27.72C34.8078 25.907 35.4478 24.373 36.7278 23.12C38.0078 21.84 39.5545 21.2 41.3678 21.2H57.848ZM58.528 27.72C58.528 27.213 58.341 26.787 57.968 26.44C57.621 26.067 57.194 25.88 56.688 25.88H42.4878C41.9811 25.88 41.5545 26.067 41.2078 26.44C40.8611 26.787 40.6878 27.213 40.6878 27.72C40.6878 28.227 40.8611 28.667 41.2078 29.04C41.5545 29.387 41.9811 29.56 42.4878 29.56H56.688C57.194 29.56 57.621 29.387 57.968 29.04C58.341 28.667 58.528 28.227 58.528 27.72ZM54.0878 2C54.8078 2 55.4211 2.25301 55.928 2.76001C56.434 3.26701 56.688 3.88001 56.688 4.60001V8.60001H58.808V4.60001C58.808 3.88001 59.061 3.26701 59.568 2.76001C60.074 2.25301 60.688 2 61.408 2C62.101 2 62.701 2.25301 63.208 2.76001C63.714 3.26701 63.968 3.88001 63.968 4.60001V17.76C63.968 18.48 63.714 19.093 63.208 19.6C62.701 20.107 62.101 20.36 61.408 20.36C60.688 20.36 60.074 20.107 59.568 19.6C59.061 19.093 58.808 18.48 58.808 17.76V13.76H56.688V17.76C56.688 18.48 56.434 19.093 55.928 19.6C55.4211 20.107 54.8078 20.36 54.0878 20.36C53.3945 20.36 52.7945 20.107 52.2878 19.6C51.7811 19.093 51.5278 18.48 51.5278 17.76V4.60001C51.5278 3.88001 51.7811 3.26701 52.2878 2.76001C52.7945 2.25301 53.3945 2 54.0878 2ZM36.6878 19.96C35.9411 19.96 35.3011 19.707 34.7678 19.2C34.2611 18.667 34.0078 18.027 34.0078 17.28V10C34.0078 7.973 34.7278 6.24 36.1678 4.8C37.6078 3.36 39.3411 2.64 41.3678 2.64H47.4478C48.1678 2.64 48.7811 2.89301 49.2878 3.40001C49.7945 3.90701 50.0478 4.52001 50.0478 5.24001C50.0478 5.96001 49.7945 6.573 49.2878 7.08C48.7811 7.56 48.1678 7.8 47.4478 7.8H42.4878C41.7411 7.8 41.1011 8.06701 40.5678 8.60001C40.0611 9.10701 39.8078 9.733 39.8078 10.48V14.8H47.4478C48.1678 14.8 48.7811 15.053 49.2878 15.56C49.7945 16.067 50.0478 16.667 50.0478 17.36C50.0478 18.08 49.7945 18.693 49.2878 19.2C48.7811 19.707 48.1678 19.96 47.4478 19.96H36.6878ZM69.536 33.44C68.816 33.44 68.202 33.187 67.696 32.68C67.189 32.173 66.936 31.56 66.936 30.84C66.936 30.147 67.189 29.547 67.696 29.04C68.202 28.533 68.816 28.28 69.536 28.28H79.456V24.52H71.176C70.429 24.52 69.789 24.267 69.256 23.76C68.749 23.227 68.496 22.587 68.496 21.84V13.68C68.496 12.96 68.749 12.347 69.256 11.84C69.789 11.307 70.429 11.04 71.176 11.04H90.456V10.64C90.456 9.92 90.189 9.307 89.656 8.8C89.149 8.267 88.522 8 87.776 8L71.056 7.96001C70.362 7.96001 69.762 7.72001 69.256 7.24001C68.749 6.73301 68.496 6.12001 68.496 5.40001C68.496 4.68001 68.749 4.067 69.256 3.56C69.762 3.053 70.362 2.8 71.056 2.8L88.896 2.84C90.922 2.84 92.642 3.56 94.056 5C95.496 6.413 96.216 8.133 96.216 10.16V13.52C96.216 14.267 95.949 14.907 95.416 15.44C94.909 15.947 94.296 16.2 93.576 16.2H74.296V19.36H94.016C94.736 19.36 95.349 19.613 95.856 20.12C96.362 20.627 96.616 21.24 96.616 21.96C96.616 22.653 96.362 23.253 95.856 23.76C95.349 24.267 94.736 24.52 94.016 24.52H85.256V28.28H95.176C95.896 28.28 96.509 28.533 97.016 29.04C97.522 29.547 97.776 30.147 97.776 30.84C97.776 31.56 97.522 32.173 97.016 32.68C96.509 33.187 95.896 33.44 95.176 33.44H69.536ZM127.868 28.28C128.588 28.28 129.201 28.533 129.708 29.04C130.215 29.547 130.468 30.147 130.468 30.84C130.468 31.56 130.215 32.173 129.708 32.68C129.201 33.187 128.588 33.44 127.868 33.44H102.228C101.508 33.44 100.895 33.187 100.388 32.68C99.881 32.173 99.628 31.56 99.628 30.84C99.628 30.147 99.881 29.547 100.388 29.04C100.895 28.533 101.508 28.28 102.228 28.28H127.868ZM126.068 25.36C125.268 25.36 124.588 25.08 124.028 24.52C123.468 23.933 123.188 23.24 123.188 22.44V10.6C123.188 9.85301 122.921 9.227 122.388 8.72C121.855 8.187 121.228 7.92 120.508 7.92H103.788C103.068 7.92 102.455 7.667 101.948 7.16C101.441 6.653 101.188 6.053 101.188 5.36C101.188 4.64 101.441 4.027 101.948 3.52C102.455 3.013 103.068 2.76001 103.788 2.76001H121.628C123.655 2.76001 125.375 3.48 126.788 4.92C128.228 6.36 128.948 8.093 128.948 10.12V22.44C128.948 23.24 128.668 23.933 128.108 24.52C127.548 25.08 126.868 25.36 126.068 25.36Z" fill="#FCF6E6"/>
<mask id="mask0_79_43250" style="mask-type:luminance" maskUnits="userSpaceOnUse" x="0" y="0" width="132" height="35">
<path d="M132 0H0V35H132V0Z" fill="white"/>
<path d="M25.0402 20.7605C26.8535 20.7605 28.3869 21.4005 29.6402 22.6805C30.9202 23.9335 31.5602 25.4675 31.5602 27.2805C31.5602 29.0675 30.9202 30.6006 29.6402 31.8806C28.3869 33.1606 26.8535 33.8006 25.0402 33.8006H8.5602C6.7469 33.8006 5.20019 33.1606 3.92019 31.8806C2.64019 30.6006 2.00019 29.0675 2.00019 27.2805C2.00019 25.4675 2.64019 23.9335 3.92019 22.6805C5.20019 21.4005 6.7469 20.7605 8.5602 20.7605H25.0402ZM25.7202 27.2805C25.7202 26.7735 25.5335 26.3475 25.1602 26.0005C24.8135 25.6275 24.3869 25.4406 23.8802 25.4406H9.68019C9.17349 25.4406 8.7469 25.6275 8.4002 26.0005C8.0535 26.3475 7.8802 26.7735 7.8802 27.2805C7.8802 27.7875 8.0535 28.2276 8.4002 28.6006C8.7469 28.9476 9.17349 29.1205 9.68019 29.1205H23.8802C24.3869 29.1205 24.8135 28.9476 25.1602 28.6006C25.5335 28.2276 25.7202 27.7875 25.7202 27.2805ZM21.2802 1.56055C22.0002 1.56055 22.6135 1.81356 23.1202 2.32056C23.6269 2.82756 23.8802 3.44055 23.8802 4.16055V8.16055H26.0002V4.16055C26.0002 3.44055 26.2535 2.82756 26.7602 2.32056C27.2669 1.81356 27.8802 1.56055 28.6002 1.56055C29.2935 1.56055 29.8935 1.81356 30.4002 2.32056C30.9069 2.82756 31.1602 3.44055 31.1602 4.16055V17.3206C31.1602 18.0406 30.9069 18.6536 30.4002 19.1606C29.8935 19.6676 29.2935 19.9205 28.6002 19.9205C27.8802 19.9205 27.2669 19.6676 26.7602 19.1606C26.2535 18.6536 26.0002 18.0406 26.0002 17.3206V13.3206H23.8802V17.3206C23.8802 18.0406 23.6269 18.6536 23.1202 19.1606C22.6135 19.6676 22.0002 19.9205 21.2802 19.9205C20.5869 19.9205 19.9869 19.6676 19.4802 19.1606C18.9735 18.6536 18.7202 18.0406 18.7202 17.3206V4.16055C18.7202 3.44055 18.9735 2.82756 19.4802 2.32056C19.9869 1.81356 20.5869 1.56055 21.2802 1.56055ZM3.8802 19.5206C3.1335 19.5206 2.49349 19.2675 1.96019 18.7605C1.45349 18.2275 1.2002 17.5875 1.2002 16.8405V9.56055C1.2002 7.53355 1.9202 5.80055 3.3602 4.36055C4.8002 2.92055 6.5335 2.20055 8.5602 2.20055H14.6402C15.3602 2.20055 15.9735 2.45356 16.4802 2.96056C16.9869 3.46756 17.2402 4.08055 17.2402 4.80055C17.2402 5.52055 16.9869 6.13355 16.4802 6.64055C15.9735 7.12055 15.3602 7.36055 14.6402 7.36055H9.68019C8.93349 7.36055 8.29349 7.62755 7.76019 8.16055C7.25349 8.66755 7.00019 9.29354 7.00019 10.0405V14.3605H14.6402C15.3602 14.3605 15.9735 14.6135 16.4802 15.1205C16.9869 15.6275 17.2402 16.2275 17.2402 16.9205C17.2402 17.6405 16.9869 18.2535 16.4802 18.7605C15.9735 19.2675 15.3602 19.5206 14.6402 19.5206H3.8802ZM58.0482 20.7605C59.8612 20.7605 61.3942 21.4005 62.6482 22.6805C63.9282 23.9335 64.5682 25.4675 64.5682 27.2805C64.5682 29.0675 63.9282 30.6006 62.6482 31.8806C61.3942 33.1606 59.8612 33.8006 58.0482 33.8006H41.568C39.7547 33.8006 38.208 33.1606 36.928 31.8806C35.648 30.6006 35.008 29.0675 35.008 27.2805C35.008 25.4675 35.648 23.9335 36.928 22.6805C38.208 21.4005 39.7547 20.7605 41.568 20.7605H58.0482ZM58.7282 27.2805C58.7282 26.7735 58.5412 26.3475 58.1682 26.0005C57.8212 25.6275 57.3942 25.4406 56.8882 25.4406H42.688C42.1813 25.4406 41.7547 25.6275 41.408 26.0005C41.0613 26.3475 40.888 26.7735 40.888 27.2805C40.888 27.7875 41.0613 28.2276 41.408 28.6006C41.7547 28.9476 42.1813 29.1205 42.688 29.1205H56.8882C57.3942 29.1205 57.8212 28.9476 58.1682 28.6006C58.5412 28.2276 58.7282 27.7875 58.7282 27.2805ZM54.288 1.56055C55.008 1.56055 55.6213 1.81356 56.1282 2.32056C56.6342 2.82756 56.8882 3.44055 56.8882 4.16055V8.16055H59.0082V4.16055C59.0082 3.44055 59.2612 2.82756 59.7682 2.32056C60.2742 1.81356 60.8882 1.56055 61.6082 1.56055C62.3012 1.56055 62.9012 1.81356 63.4082 2.32056C63.9142 2.82756 64.1682 3.44055 64.1682 4.16055V17.3206C64.1682 18.0406 63.9142 18.6536 63.4082 19.1606C62.9012 19.6676 62.3012 19.9205 61.6082 19.9205C60.8882 19.9205 60.2742 19.6676 59.7682 19.1606C59.2612 18.6536 59.0082 18.0406 59.0082 17.3206V13.3206H56.8882V17.3206C56.8882 18.0406 56.6342 18.6536 56.1282 19.1606C55.6213 19.6676 55.008 19.9205 54.288 19.9205C53.5947 19.9205 52.9947 19.6676 52.488 19.1606C51.9813 18.6536 51.728 18.0406 51.728 17.3206V4.16055C51.728 3.44055 51.9813 2.82756 52.488 2.32056C52.9947 1.81356 53.5947 1.56055 54.288 1.56055ZM36.888 19.5206C36.1413 19.5206 35.5013 19.2675 34.968 18.7605C34.4613 18.2275 34.208 17.5875 34.208 16.8405V9.56055C34.208 7.53355 34.928 5.80055 36.368 4.36055C37.808 2.92055 39.5413 2.20055 41.568 2.20055H47.648C48.368 2.20055 48.9813 2.45356 49.488 2.96056C49.9947 3.46756 50.248 4.08055 50.248 4.80055C50.248 5.52055 49.9947 6.13355 49.488 6.64055C48.9813 7.12055 48.368 7.36055 47.648 7.36055H42.688C41.9413 7.36055 41.3013 7.62755 40.768 8.16055C40.2613 8.66755 40.008 9.29354 40.008 10.0405V14.3605H47.648C48.368 14.3605 48.9813 14.6135 49.488 15.1205C49.9947 15.6275 50.248 16.2275 50.248 16.9205C50.248 17.6405 49.9947 18.2535 49.488 18.7605C48.9813 19.2675 48.368 19.5206 47.648 19.5206H36.888ZM69.7362 33.0005C69.0162 33.0005 68.4022 32.7476 67.8962 32.2406C67.3892 31.7336 67.1362 31.1205 67.1362 30.4005C67.1362 29.7075 67.3892 29.1076 67.8962 28.6006C68.4022 28.0936 69.0162 27.8405 69.7362 27.8405H79.6562V24.0806H71.3762C70.6292 24.0806 69.9892 23.8276 69.4562 23.3206C68.9492 22.7876 68.6962 22.1475 68.6962 21.4005V13.2406C68.6962 12.5206 68.9492 11.9075 69.4562 11.4005C69.9892 10.8675 70.6292 10.6006 71.3762 10.6006H90.6562V10.2005C90.6562 9.48055 90.3892 8.86755 89.8562 8.36055C89.3492 7.82755 88.7222 7.56055 87.9762 7.56055L71.2562 7.52055C70.5622 7.52055 69.9622 7.28055 69.4562 6.80055C68.9492 6.29355 68.6962 5.68056 68.6962 4.96056C68.6962 4.24056 68.9492 3.62754 69.4562 3.12054C69.9622 2.61354 70.5622 2.36055 71.2562 2.36055L89.0962 2.40054C91.1222 2.40054 92.8422 3.12055 94.2562 4.56055C95.6962 5.97355 96.4162 7.69355 96.4162 9.72055V13.0806C96.4162 13.8276 96.1492 14.4675 95.6162 15.0005C95.1092 15.5075 94.4962 15.7605 93.7762 15.7605H74.4962V18.9205H94.2162C94.9362 18.9205 95.5492 19.1735 96.0562 19.6805C96.5622 20.1875 96.8162 20.8006 96.8162 21.5206C96.8162 22.2136 96.5622 22.8136 96.0562 23.3206C95.5492 23.8276 94.9362 24.0806 94.2162 24.0806H85.4562V27.8405H95.3762C96.0962 27.8405 96.7092 28.0936 97.2162 28.6006C97.7222 29.1076 97.9762 29.7075 97.9762 30.4005C97.9762 31.1205 97.7222 31.7336 97.2162 32.2406C96.7092 32.7476 96.0962 33.0005 95.3762 33.0005H69.7362ZM128.068 27.8405C128.788 27.8405 129.401 28.0936 129.908 28.6006C130.415 29.1076 130.668 29.7075 130.668 30.4005C130.668 31.1205 130.415 31.7336 129.908 32.2406C129.401 32.7476 128.788 33.0005 128.068 33.0005H102.428C101.708 33.0005 101.095 32.7476 100.588 32.2406C100.081 31.7336 99.8282 31.1205 99.8282 30.4005C99.8282 29.7075 100.081 29.1076 100.588 28.6006C101.095 28.0936 101.708 27.8405 102.428 27.8405H128.068ZM126.268 24.9205C125.468 24.9205 124.788 24.6406 124.228 24.0806C123.668 23.4936 123.388 22.8005 123.388 22.0005V10.1606C123.388 9.41355 123.121 8.78755 122.588 8.28055C122.055 7.74755 121.428 7.48055 120.708 7.48055H103.988C103.268 7.48055 102.655 7.22755 102.148 6.72055C101.641 6.21355 101.388 5.61355 101.388 4.92055C101.388 4.20055 101.641 3.58755 102.148 3.08055C102.655 2.57355 103.268 2.32056 103.988 2.32056H121.828C123.855 2.32056 125.575 3.04054 126.988 4.48055C128.428 5.92055 129.148 7.65354 129.148 9.68054V22.0005C129.148 22.8005 128.868 23.4936 128.308 24.0806C127.748 24.6406 127.068 24.9205 126.268 24.9205Z" fill="black"/>
</mask>
<g mask="url(#mask0_79_43250)">
<path d="M29.6402 22.6805L28.9257 23.3806L28.9331 23.3875L28.9406 23.3956L29.6402 22.6805ZM29.6402 31.8806L28.9331 31.1736L28.9257 31.1805L29.6402 31.8806ZM3.92019 22.6805L4.6199 23.3956L4.6273 23.3875L3.92019 22.6805ZM25.1602 26.0005L24.4274 26.6805L24.4526 26.7085L24.4797 26.7336L25.1602 26.0005ZM8.4002 26.0005L9.1073 26.7076L9.1204 26.6945L9.133 26.6805L8.4002 26.0005ZM8.4002 28.6006L7.66739 29.2805L7.67999 29.2946L7.6931 29.3076L8.4002 28.6006ZM23.8802 8.16055H22.8802V9.16055H23.8802V8.16055ZM26.0002 8.16055V9.16055H27.0002V8.16055H26.0002ZM26.0002 13.3206H27.0002V12.3206H26.0002V13.3206ZM23.8802 13.3206V12.3206H22.8802V13.3206H23.8802ZM1.96019 18.7605L1.2352 19.4496L1.2529 19.4675L1.2715 19.4855L1.96019 18.7605ZM16.4802 6.64055L17.1679 7.36655L17.1778 7.35754L17.1873 7.34755L16.4802 6.64055ZM7.00019 14.3605H6.00019V15.3605H7.00019V14.3605ZM25.0402 21.7605C26.5884 21.7605 27.863 22.2946 28.9257 23.3806L30.3547 21.9805C28.9107 20.5065 27.1187 19.7605 25.0402 19.7605V21.7605ZM28.9406 23.3956C30.0258 24.4576 30.5602 25.7325 30.5602 27.2805H32.5602C32.5602 25.2025 31.8146 23.4105 30.3398 21.9655L28.9406 23.3956ZM30.5602 27.2805C30.5602 28.7985 30.0283 30.0786 28.9331 31.1736L30.3473 32.5876C31.8121 31.1226 32.5602 29.3365 32.5602 27.2805H30.5602ZM28.9257 31.1805C27.863 32.2665 26.5884 32.8006 25.0402 32.8006V34.8006C27.1187 34.8006 28.9107 34.0546 30.3547 32.5806L28.9257 31.1805ZM25.0402 32.8006H8.5602V34.8006H25.0402V32.8006ZM8.5602 32.8006C7.0116 32.8006 5.7194 32.2656 4.6273 31.1736L3.21309 32.5876C4.68099 34.0556 6.4822 34.8006 8.5602 34.8006V32.8006ZM4.6273 31.1736C3.5321 30.0786 3.00019 28.7985 3.00019 27.2805H1.00019C1.00019 29.3365 1.74829 31.1226 3.21309 32.5876L4.6273 31.1736ZM3.00019 27.2805C3.00019 25.7325 3.5347 24.4576 4.6199 23.3956L3.2206 21.9655C1.7458 23.4105 1.00019 25.2025 1.00019 27.2805H3.00019ZM4.6273 23.3875C5.7194 22.2955 7.0116 21.7605 8.5602 21.7605V19.7605C6.4822 19.7605 4.68099 20.5056 3.21309 21.9736L4.6273 23.3875ZM8.5602 21.7605H25.0402V19.7605H8.5602V21.7605ZM26.7202 27.2805C26.7202 26.4945 26.4165 25.8025 25.8407 25.2675L24.4797 26.7336C24.6506 26.8916 24.7202 27.0535 24.7202 27.2805H26.7202ZM25.893 25.3206C25.3583 24.7446 24.6667 24.4406 23.8802 24.4406V26.4406C24.1071 26.4406 24.2688 26.5105 24.4274 26.6805L25.893 25.3206ZM23.8802 24.4406H9.68019V26.4406H23.8802V24.4406ZM9.68019 24.4406C8.89369 24.4406 8.20209 24.7446 7.66739 25.3206L9.133 26.6805C9.2916 26.5105 9.45329 26.4406 9.68019 26.4406V24.4406ZM7.6931 25.2935C7.152 25.8345 6.8802 26.5185 6.8802 27.2805H8.8802C8.8802 27.0295 8.9551 26.8596 9.1073 26.7076L7.6931 25.2935ZM6.8802 27.2805C6.8802 28.0415 7.14999 28.7235 7.66739 29.2805L9.133 27.9205C8.957 27.7305 8.8802 27.5335 8.8802 27.2805H6.8802ZM7.6931 29.3076C8.2342 29.8486 8.91819 30.1205 9.68019 30.1205V28.1205C9.42879 28.1205 9.2595 28.0456 9.1073 27.8936L7.6931 29.3076ZM9.68019 30.1205H23.8802V28.1205H9.68019V30.1205ZM23.8802 30.1205C24.6422 30.1205 25.3262 29.8486 25.8673 29.3076L24.4531 27.8936C24.3009 28.0456 24.1316 28.1205 23.8802 28.1205V30.1205ZM25.8673 29.3076C26.4194 28.7556 26.7202 28.0645 26.7202 27.2805H24.7202C24.7202 27.5095 24.6477 27.6986 24.4531 27.8936L25.8673 29.3076ZM21.2802 2.56055C21.7364 2.56055 22.095 2.70954 22.4131 3.02754L23.8273 1.61356C23.1321 0.918556 22.264 0.560547 21.2802 0.560547V2.56055ZM22.4131 3.02754C22.7312 3.34554 22.8802 3.70455 22.8802 4.16055H24.8802C24.8802 3.17655 24.5225 2.30856 23.8273 1.61356L22.4131 3.02754ZM22.8802 4.16055V8.16055H24.8802V4.16055H22.8802ZM23.8802 9.16055H26.0002V7.16055H23.8802V9.16055ZM27.0002 8.16055V4.16055H25.0002V8.16055H27.0002ZM27.0002 4.16055C27.0002 3.70455 27.1492 3.34554 27.4673 3.02754L26.0531 1.61356C25.3579 2.30856 25.0002 3.17655 25.0002 4.16055H27.0002ZM27.4673 3.02754C27.7854 2.70954 28.144 2.56055 28.6002 2.56055V0.560547C27.6164 0.560547 26.7483 0.918556 26.0531 1.61356L27.4673 3.02754ZM28.6002 2.56055C29.0186 2.56055 29.367 2.70154 29.6931 3.02754L31.1073 1.61356C30.4201 0.926556 29.5685 0.560547 28.6002 0.560547V2.56055ZM29.6931 3.02754C30.0112 3.34554 30.1602 3.70455 30.1602 4.16055H32.1602C32.1602 3.17655 31.8025 2.30856 31.1073 1.61356L29.6931 3.02754ZM30.1602 4.16055V17.3206H32.1602V4.16055H30.1602ZM30.1602 17.3206C30.1602 17.7766 30.0112 18.1356 29.6931 18.4536L31.1073 19.8676C31.8025 19.1726 32.1602 18.3046 32.1602 17.3206H30.1602ZM29.6931 18.4536C29.367 18.7796 29.0186 18.9205 28.6002 18.9205V20.9205C29.5685 20.9205 30.4201 20.5546 31.1073 19.8676L29.6931 18.4536ZM28.6002 18.9205C28.144 18.9205 27.7854 18.7716 27.4673 18.4536L26.0531 19.8676C26.7483 20.5626 27.6164 20.9205 28.6002 20.9205V18.9205ZM27.4673 18.4536C27.1492 18.1356 27.0002 17.7766 27.0002 17.3206H25.0002C25.0002 18.3046 25.3579 19.1726 26.0531 19.8676L27.4673 18.4536ZM27.0002 17.3206V13.3206H25.0002V17.3206H27.0002ZM26.0002 12.3206H23.8802V14.3206H26.0002V12.3206ZM22.8802 13.3206V17.3206H24.8802V13.3206H22.8802ZM22.8802 17.3206C22.8802 17.7766 22.7312 18.1356 22.4131 18.4536L23.8273 19.8676C24.5225 19.1726 24.8802 18.3046 24.8802 17.3206H22.8802ZM22.4131 18.4536C22.095 18.7716 21.7364 18.9205 21.2802 18.9205V20.9205C22.264 20.9205 23.1321 20.5626 23.8273 19.8676L22.4131 18.4536ZM21.2802 18.9205C20.8618 18.9205 20.5135 18.7796 20.1873 18.4536L18.7731 19.8676C19.4603 20.5546 20.3119 20.9205 21.2802 20.9205V18.9205ZM20.1873 18.4536C19.8692 18.1356 19.7202 17.7766 19.7202 17.3206H17.7202C17.7202 18.3046 18.0779 19.1726 18.7731 19.8676L20.1873 18.4536ZM19.7202 17.3206V4.16055H17.7202V17.3206H19.7202ZM19.7202 4.16055C19.7202 3.70455 19.8692 3.34554 20.1873 3.02754L18.7731 1.61356C18.0779 2.30856 17.7202 3.17655 17.7202 4.16055H19.7202ZM20.1873 3.02754C20.5135 2.70154 20.8618 2.56055 21.2802 2.56055V0.560547C20.3119 0.560547 19.4603 0.926556 18.7731 1.61356L20.1873 3.02754ZM3.8802 18.5206C3.3856 18.5206 2.9934 18.3626 2.6489 18.0356L1.2715 19.4855C1.9937 20.1715 2.8815 20.5206 3.8802 20.5206V18.5206ZM2.6852 18.0715C2.358 17.7275 2.2002 17.3355 2.2002 16.8405H0.200195C0.200195 17.8395 0.548995 18.7266 1.2352 19.4496L2.6852 18.0715ZM2.2002 16.8405V9.56055H0.200195V16.8405H2.2002ZM2.2002 9.56055C2.2002 7.80055 2.8138 6.32155 4.0673 5.06755L2.6531 3.65355C1.0266 5.27955 0.200195 7.26755 0.200195 9.56055H2.2002ZM4.0673 5.06755C5.3208 3.81455 6.8002 3.20055 8.5602 3.20055V1.20055C6.2669 1.20055 4.2796 2.02655 2.6531 3.65355L4.0673 5.06755ZM8.5602 3.20055H14.6402V1.20055H8.5602V3.20055ZM14.6402 3.20055C15.0964 3.20055 15.455 3.34956 15.7731 3.66756L17.1873 2.25356C16.4921 1.55856 15.624 1.20055 14.6402 1.20055V3.20055ZM15.7731 3.66756C16.0912 3.98556 16.2402 4.34455 16.2402 4.80055H18.2402C18.2402 3.81655 17.8825 2.94856 17.1873 2.25356L15.7731 3.66756ZM16.2402 4.80055C16.2402 5.25655 16.0912 5.61555 15.7731 5.93355L17.1873 7.34755C17.8825 6.65255 18.2402 5.78455 18.2402 4.80055H16.2402ZM15.7925 5.91455C15.4779 6.21255 15.1133 6.36055 14.6402 6.36055V8.36055C15.6071 8.36055 16.4691 8.02855 17.1679 7.36655L15.7925 5.91455ZM14.6402 6.36055H9.68019V8.36055H14.6402V6.36055ZM9.68019 6.36055C8.66529 6.36055 7.77179 6.73455 7.05309 7.45355L8.46729 8.86755C8.81519 8.51955 9.20179 8.36055 9.68019 8.36055V6.36055ZM7.05309 7.45355C6.35029 8.15655 6.00019 9.04154 6.00019 10.0405H8.00019C8.00019 9.54654 8.15679 9.17855 8.46729 8.86755L7.05309 7.45355ZM6.00019 10.0405V14.3605H8.00019V10.0405H6.00019ZM7.00019 15.3605H14.6402V13.3605H7.00019V15.3605ZM14.6402 15.3605C15.0964 15.3605 15.455 15.5095 15.7731 15.8275L17.1873 14.4135C16.4921 13.7185 15.624 13.3605 14.6402 13.3605V15.3605ZM15.7731 15.8275C16.0992 16.1535 16.2402 16.5025 16.2402 16.9205H18.2402C18.2402 15.9525 17.8745 15.1005 17.1873 14.4135L15.7731 15.8275ZM16.2402 16.9205C16.2402 17.3765 16.0912 17.7355 15.7731 18.0535L17.1873 19.4675C17.8825 18.7725 18.2402 17.9045 18.2402 16.9205H16.2402ZM15.7731 18.0535C15.455 18.3715 15.0964 18.5206 14.6402 18.5206V20.5206C15.624 20.5206 16.4921 20.1625 17.1873 19.4675L15.7731 18.0535ZM14.6402 18.5206H3.8802V20.5206H14.6402V18.5206ZM62.6482 22.6805L61.9332 23.3806L61.9412 23.3875L61.9482 23.3956L62.6482 22.6805ZM62.6482 31.8806L61.9412 31.1736L61.9332 31.1805L62.6482 31.8806ZM36.928 22.6805L37.6277 23.3956L37.6351 23.3875L36.928 22.6805ZM58.1682 26.0005L57.4352 26.6805L57.4602 26.7085L57.4872 26.7336L58.1682 26.0005ZM41.408 26.0005L42.1151 26.7076L42.1282 26.6945L42.1408 26.6805L41.408 26.0005ZM41.408 28.6006L40.6752 29.2805L40.6878 29.2946L40.7009 29.3076L41.408 28.6006ZM56.8882 8.16055H55.888V9.16055H56.8882V8.16055ZM59.0082 8.16055V9.16055H60.0082V8.16055H59.0082ZM59.0082 13.3206H60.0082V12.3206H59.0082V13.3206ZM56.8882 13.3206V12.3206H55.888V13.3206H56.8882ZM34.968 18.7605L34.243 19.4496L34.2607 19.4675L34.2793 19.4855L34.968 18.7605ZM49.488 6.64055L50.1758 7.36655L50.1856 7.35754L50.1951 7.34755L49.488 6.64055ZM40.008 14.3605H39.008V15.3605H40.008V14.3605ZM58.0482 21.7605C59.5962 21.7605 60.8712 22.2946 61.9332 23.3806L63.3622 21.9805C61.9182 20.5065 60.1262 19.7605 58.0482 19.7605V21.7605ZM61.9482 23.3956C63.0332 24.4576 63.5682 25.7325 63.5682 27.2805H65.5682C65.5682 25.2025 64.8222 23.4105 63.3472 21.9655L61.9482 23.3956ZM63.5682 27.2805C63.5682 28.7985 63.0362 30.0786 61.9412 31.1736L63.3552 32.5876C64.8202 31.1226 65.5682 29.3365 65.5682 27.2805H63.5682ZM61.9332 31.1805C60.8712 32.2665 59.5962 32.8006 58.0482 32.8006V34.8006C60.1262 34.8006 61.9182 34.0546 63.3622 32.5806L61.9332 31.1805ZM58.0482 32.8006H41.568V34.8006H58.0482V32.8006ZM41.568 32.8006C40.0194 32.8006 38.7272 32.2656 37.6351 31.1736L36.2209 32.5876C37.6888 34.0556 39.49 34.8006 41.568 34.8006V32.8006ZM37.6351 31.1736C36.5399 30.0786 36.008 28.7985 36.008 27.2805H34.008C34.008 29.3365 34.7561 31.1226 36.2209 32.5876L37.6351 31.1736ZM36.008 27.2805C36.008 25.7325 36.5425 24.4576 37.6277 23.3956L36.2284 21.9655C34.7536 23.4105 34.008 25.2025 34.008 27.2805H36.008ZM37.6351 23.3875C38.7272 22.2955 40.0194 21.7605 41.568 21.7605V19.7605C39.49 19.7605 37.6888 20.5056 36.2209 21.9736L37.6351 23.3875ZM41.568 21.7605H58.0482V19.7605H41.568V21.7605ZM59.7282 27.2805C59.7282 26.4945 59.4242 25.8025 58.8482 25.2675L57.4872 26.7336C57.6582 26.8916 57.7282 27.0535 57.7282 27.2805H59.7282ZM58.9012 25.3206C58.3662 24.7446 57.6742 24.4406 56.8882 24.4406V26.4406C57.1152 26.4406 57.2762 26.5105 57.4352 26.6805L58.9012 25.3206ZM56.8882 24.4406H42.688V26.4406H56.8882V24.4406ZM42.688 24.4406C41.9015 24.4406 41.2099 24.7446 40.6752 25.3206L42.1408 26.6805C42.2995 26.5105 42.4612 26.4406 42.688 26.4406V24.4406ZM40.7009 25.2935C40.1598 25.8345 39.888 26.5185 39.888 27.2805H41.888C41.888 27.0295 41.9629 26.8596 42.1151 26.7076L40.7009 25.2935ZM39.888 27.2805C39.888 28.0415 40.1579 28.7235 40.6752 29.2805L42.1408 27.9205C41.9648 27.7305 41.888 27.5335 41.888 27.2805H39.888ZM40.7009 29.3076C41.242 29.8486 41.926 30.1205 42.688 30.1205V28.1205C42.4366 28.1205 42.2674 28.0456 42.1151 27.8936L40.7009 29.3076ZM42.688 30.1205H56.8882V28.1205H42.688V30.1205ZM56.8882 30.1205C57.6502 30.1205 58.3342 29.8486 58.8752 29.3076L57.4612 27.8936C57.3082 28.0456 57.1392 28.1205 56.8882 28.1205V30.1205ZM58.8752 29.3076C59.4272 28.7556 59.7282 28.0645 59.7282 27.2805H57.7282C57.7282 27.5095 57.6552 27.6986 57.4612 27.8936L58.8752 29.3076ZM54.288 2.56055C54.7442 2.56055 55.1028 2.70954 55.4209 3.02754L56.8352 1.61356C56.1402 0.918556 55.2718 0.560547 54.288 0.560547V2.56055ZM55.4209 3.02754C55.739 3.34554 55.888 3.70455 55.888 4.16055H57.8882C57.8882 3.17655 57.5302 2.30856 56.8352 1.61356L55.4209 3.02754ZM55.888 4.16055V8.16055H57.8882V4.16055H55.888ZM56.8882 9.16055H59.0082V7.16055H56.8882V9.16055ZM60.0082 8.16055V4.16055H58.0082V8.16055H60.0082ZM60.0082 4.16055C60.0082 3.70455 60.1572 3.34554 60.4752 3.02754L59.0612 1.61356C58.3652 2.30856 58.0082 3.17655 58.0082 4.16055H60.0082ZM60.4752 3.02754C60.7932 2.70954 61.1522 2.56055 61.6082 2.56055V0.560547C60.6242 0.560547 59.7562 0.918556 59.0612 1.61356L60.4752 3.02754ZM61.6082 2.56055C62.0262 2.56055 62.3752 2.70154 62.7012 3.02754L64.1152 1.61356C63.4282 0.926556 62.5762 0.560547 61.6082 0.560547V2.56055ZM62.7012 3.02754C63.0192 3.34554 63.1682 3.70455 63.1682 4.16055H65.1682C65.1682 3.17655 64.8102 2.30856 64.1152 1.61356L62.7012 3.02754ZM63.1682 4.16055V17.3206H65.1682V4.16055H63.1682ZM63.1682 17.3206C63.1682 17.7766 63.0192 18.1356 62.7012 18.4536L64.1152 19.8676C64.8102 19.1726 65.1682 18.3046 65.1682 17.3206H63.1682ZM62.7012 18.4536C62.3752 18.7796 62.0262 18.9205 61.6082 18.9205V20.9205C62.5762 20.9205 63.4282 20.5546 64.1152 19.8676L62.7012 18.4536ZM61.6082 18.9205C61.1522 18.9205 60.7932 18.7716 60.4752 18.4536L59.0612 19.8676C59.7562 20.5626 60.6242 20.9205 61.6082 20.9205V18.9205ZM60.4752 18.4536C60.1572 18.1356 60.0082 17.7766 60.0082 17.3206H58.0082C58.0082 18.3046 58.3652 19.1726 59.0612 19.8676L60.4752 18.4536ZM60.0082 17.3206V13.3206H58.0082V17.3206H60.0082ZM59.0082 12.3206H56.8882V14.3206H59.0082V12.3206ZM55.888 13.3206V17.3206H57.8882V13.3206H55.888ZM55.888 17.3206C55.888 17.7766 55.739 18.1356 55.4209 18.4536L56.8352 19.8676C57.5302 19.1726 57.8882 18.3046 57.8882 17.3206H55.888ZM55.4209 18.4536C55.1028 18.7716 54.7442 18.9205 54.288 18.9205V20.9205C55.2718 20.9205 56.1402 20.5626 56.8352 19.8676L55.4209 18.4536ZM54.288 18.9205C53.8697 18.9205 53.5213 18.7796 53.1951 18.4536L51.7809 19.8676C52.4681 20.5546 53.3197 20.9205 54.288 20.9205V18.9205ZM53.1951 18.4536C52.877 18.1356 52.728 17.7766 52.728 17.3206H50.728C50.728 18.3046 51.0857 19.1726 51.7809 19.8676L53.1951 18.4536ZM52.728 17.3206V4.16055H50.728V17.3206H52.728ZM52.728 4.16055C52.728 3.70455 52.877 3.34554 53.1951 3.02754L51.7809 1.61356C51.0857 2.30856 50.728 3.17655 50.728 4.16055H52.728ZM53.1951 3.02754C53.5213 2.70154 53.8697 2.56055 54.288 2.56055V0.560547C53.3197 0.560547 52.4681 0.926556 51.7809 1.61356L53.1951 3.02754ZM36.888 18.5206C36.3934 18.5206 36.0012 18.3626 35.6568 18.0356L34.2793 19.4855C35.0015 20.1715 35.8893 20.5206 36.888 20.5206V18.5206ZM35.693 18.0715C35.3658 17.7275 35.208 17.3355 35.208 16.8405H33.208C33.208 17.8395 33.5569 18.7266 34.243 19.4496L35.693 18.0715ZM35.208 16.8405V9.56055H33.208V16.8405H35.208ZM35.208 9.56055C35.208 7.80055 35.8216 6.32155 37.0751 5.06755L35.6609 3.65355C34.0344 5.27955 33.208 7.26755 33.208 9.56055H35.208ZM37.0751 5.06755C38.3286 3.81455 39.808 3.20055 41.568 3.20055V1.20055C39.2747 1.20055 37.2874 2.02655 35.6609 3.65355L37.0751 5.06755ZM41.568 3.20055H47.648V1.20055H41.568V3.20055ZM47.648 3.20055C48.1042 3.20055 48.4628 3.34956 48.7809 3.66756L50.1951 2.25356C49.4999 1.55856 48.6318 1.20055 47.648 1.20055V3.20055ZM48.7809 3.66756C49.099 3.98556 49.248 4.34455 49.248 4.80055H51.248C51.248 3.81655 50.8903 2.94856 50.1951 2.25356L48.7809 3.66756ZM49.248 4.80055C49.248 5.25655 49.099 5.61555 48.7809 5.93355L50.1951 7.34755C50.8903 6.65255 51.248 5.78455 51.248 4.80055H49.248ZM48.8003 5.91455C48.4858 6.21255 48.1211 6.36055 47.648 6.36055V8.36055C48.6149 8.36055 49.4769 8.02855 50.1758 7.36655L48.8003 5.91455ZM47.648 6.36055H42.688V8.36055H47.648V6.36055ZM42.688 6.36055C41.6731 6.36055 40.7796 6.73455 40.0609 7.45355L41.4751 8.86755C41.8231 8.51955 42.2096 8.36055 42.688 8.36055V6.36055ZM40.0609 7.45355C39.3581 8.15655 39.008 9.04154 39.008 10.0405H41.008C41.008 9.54654 41.1646 9.17855 41.4751 8.86755L40.0609 7.45355ZM39.008 10.0405V14.3605H41.008V10.0405H39.008ZM40.008 15.3605H47.648V13.3605H40.008V15.3605ZM47.648 15.3605C48.1042 15.3605 48.4628 15.5095 48.7809 15.8275L50.1951 14.4135C49.4999 13.7185 48.6318 13.3605 47.648 13.3605V15.3605ZM48.7809 15.8275C49.1071 16.1535 49.248 16.5025 49.248 16.9205H51.248C51.248 15.9525 50.8823 15.1005 50.1951 14.4135L48.7809 15.8275ZM49.248 16.9205C49.248 17.3765 49.099 17.7355 48.7809 18.0535L50.1951 19.4675C50.8903 18.7725 51.248 17.9045 51.248 16.9205H49.248ZM48.7809 18.0535C48.4628 18.3715 48.1042 18.5206 47.648 18.5206V20.5206C48.6318 20.5206 49.4999 20.1625 50.1951 19.4675L48.7809 18.0535ZM47.648 18.5206H36.888V20.5206H47.648V18.5206ZM79.6562 27.8405V28.8405H80.6562V27.8405H79.6562ZM79.6562 24.0806H80.6562V23.0806H79.6562V24.0806ZM69.4562 23.3206L68.7312 24.0096L68.7482 24.0275L68.7672 24.0455L69.4562 23.3206ZM90.6562 10.6006V11.6006H91.6562V10.6006H90.6562ZM89.8562 8.36055L89.1312 9.04955L89.1482 9.06755L89.1672 9.08556L89.8562 8.36055ZM87.9762 7.56055L87.9732 8.56055H87.9762V7.56055ZM71.2562 7.52055L71.2582 6.52055H71.2562V7.52055ZM69.4562 6.80055L68.7492 7.50755L68.7582 7.51755L68.7682 7.52655L69.4562 6.80055ZM71.2562 2.36055L71.2582 1.36055H71.2562V2.36055ZM89.0962 2.40054L89.0932 3.40054H89.0962V2.40054ZM94.2562 4.56055L93.5422 5.26054L93.5482 5.26755L93.5552 5.27455L94.2562 4.56055ZM74.4962 15.7605V14.7605H73.4962V15.7605H74.4962ZM74.4962 18.9205H73.4962V19.9205H74.4962V18.9205ZM85.4562 24.0806V23.0806H84.4562V24.0806H85.4562ZM85.4562 27.8405H84.4562V28.8405H85.4562V27.8405ZM69.7362 32.0005C69.2792 32.0005 68.9212 31.8516 68.6032 31.5336L67.1892 32.9476C67.8842 33.6426 68.7522 34.0005 69.7362 34.0005V32.0005ZM68.6032 31.5336C68.2852 31.2156 68.1362 30.8565 68.1362 30.4005H66.1362C66.1362 31.3845 66.4932 32.2526 67.1892 32.9476L68.6032 31.5336ZM68.1362 30.4005C68.1362 29.9825 68.2772 29.6336 68.6032 29.3076L67.1892 27.8936C66.5012 28.5806 66.1362 29.4325 66.1362 30.4005H68.1362ZM68.6032 29.3076C68.9212 28.9896 69.2792 28.8405 69.7362 28.8405V26.8405C68.7522 26.8405 67.8842 27.1986 67.1892 27.8936L68.6032 29.3076ZM69.7362 28.8405H79.6562V26.8405H69.7362V28.8405ZM80.6562 27.8405V24.0806H78.6562V27.8405H80.6562ZM79.6562 23.0806H71.3762V25.0806H79.6562V23.0806ZM71.3762 23.0806C70.8812 23.0806 70.4892 22.9226 70.1442 22.5956L68.7672 24.0455C69.4892 24.7315 70.3772 25.0806 71.3762 25.0806V23.0806ZM70.1812 22.6315C69.8532 22.2875 69.6962 21.8955 69.6962 21.4005H67.6962C67.6962 22.3995 68.0442 23.2866 68.7312 24.0096L70.1812 22.6315ZM69.6962 21.4005V13.2406H67.6962V21.4005H69.6962ZM69.6962 13.2406C69.6962 12.7846 69.8452 12.4255 70.1632 12.1075L68.7492 10.6935C68.0532 11.3885 67.6962 12.2566 67.6962 13.2406H69.6962ZM70.1632 12.1075C70.5112 11.7595 70.8972 11.6006 71.3762 11.6006V9.60056C70.3612 9.60056 69.4672 9.97454 68.7492 10.6935L70.1632 12.1075ZM71.3762 11.6006H90.6562V9.60056H71.3762V11.6006ZM91.6562 10.6006V10.2005H89.6562V10.6006H91.6562ZM91.6562 10.2005C91.6562 9.19955 91.2722 8.32654 90.5442 7.63554L89.1672 9.08556C89.5062 9.40856 89.6562 9.76155 89.6562 10.2005H91.6562ZM90.5812 7.67155C89.8822 6.93655 88.9922 6.56055 87.9762 6.56055V8.56055C88.4532 8.56055 88.8162 8.71755 89.1312 9.04955L90.5812 7.67155ZM87.9782 6.56055L71.2582 6.52055L71.2532 8.52055L87.9732 8.56055L87.9782 6.56055ZM71.2562 6.52055C70.8202 6.52055 70.4662 6.37955 70.1432 6.07455L68.7682 7.52655C69.4592 8.18155 70.3052 8.52055 71.2562 8.52055V6.52055ZM70.1632 6.09355C69.8452 5.77555 69.6962 5.41656 69.6962 4.96056H67.6962C67.6962 5.94456 68.0532 6.81255 68.7492 7.50755L70.1632 6.09355ZM69.6962 4.96056C69.6962 4.50456 69.8452 4.14555 70.1632 3.82755L68.7492 2.41354C68.0532 3.10854 67.6962 3.97656 67.6962 4.96056H69.6962ZM70.1632 3.82755C70.4892 3.50155 70.8372 3.36055 71.2562 3.36055V1.36055C70.2872 1.36055 69.4362 1.72654 68.7492 2.41354L70.1632 3.82755ZM71.2532 3.36055L89.0932 3.40054L89.0982 1.40054L71.2582 1.36055L71.2532 3.36055ZM89.0962 3.40054C90.8552 3.40054 92.3182 4.01354 93.5422 5.26054L94.9692 3.86055C93.3672 2.22755 91.3892 1.40054 89.0962 1.40054V3.40054ZM93.5552 5.27455C94.8032 6.49855 95.4162 7.96055 95.4162 9.72055H97.4162C97.4162 7.42655 96.5892 5.44954 94.9562 3.84654L93.5552 5.27455ZM95.4162 9.72055V13.0806H97.4162V9.72055H95.4162ZM95.4162 13.0806C95.4162 13.5586 95.2562 13.9455 94.9092 14.2935L96.3232 15.7076C97.0412 14.9886 97.4162 14.0956 97.4162 13.0806H95.4162ZM94.9092 14.2935C94.5902 14.6115 94.2322 14.7605 93.7762 14.7605V16.7605C94.7592 16.7605 95.6282 16.4026 96.3232 15.7076L94.9092 14.2935ZM93.7762 14.7605H74.4962V16.7605H93.7762V14.7605ZM73.4962 15.7605V18.9205H75.4962V15.7605H73.4962ZM74.4962 19.9205H94.2162V17.9205H74.4962V19.9205ZM94.2162 19.9205C94.6722 19.9205 95.0302 20.0695 95.3492 20.3875L96.7632 18.9736C96.0682 18.2786 95.1992 17.9205 94.2162 17.9205V19.9205ZM95.3492 20.3875C95.6672 20.7055 95.8162 21.0646 95.8162 21.5206H97.8162C97.8162 20.5366 97.4582 19.6686 96.7632 18.9736L95.3492 20.3875ZM95.8162 21.5206C95.8162 21.9386 95.6752 22.2876 95.3492 22.6136L96.7632 24.0275C97.4502 23.3405 97.8162 22.4886 97.8162 21.5206H95.8162ZM95.3492 22.6136C95.0302 22.9316 94.6722 23.0806 94.2162 23.0806V25.0806C95.1992 25.0806 96.0682 24.7225 96.7632 24.0275L95.3492 22.6136ZM94.2162 23.0806H85.4562V25.0806H94.2162V23.0806ZM84.4562 24.0806V27.8405H86.4562V24.0806H84.4562ZM85.4562 28.8405H95.3762V26.8405H85.4562V28.8405ZM95.3762 28.8405C95.8322 28.8405 96.1902 28.9896 96.5092 29.3076L97.9232 27.8936C97.2282 27.1986 96.3592 26.8405 95.3762 26.8405V28.8405ZM96.5092 29.3076C96.8352 29.6336 96.9762 29.9825 96.9762 30.4005H98.9762C98.9762 29.4325 98.6102 28.5806 97.9232 27.8936L96.5092 29.3076ZM96.9762 30.4005C96.9762 30.8565 96.8272 31.2156 96.5092 31.5336L97.9232 32.9476C98.6182 32.2526 98.9762 31.3845 98.9762 30.4005H96.9762ZM96.5092 31.5336C96.1902 31.8516 95.8322 32.0005 95.3762 32.0005V34.0005C96.3592 34.0005 97.2282 33.6426 97.9232 32.9476L96.5092 31.5336ZM95.3762 32.0005H69.7362V34.0005H95.3762V32.0005ZM124.228 24.0806L123.505 24.7706L123.513 24.7796L123.521 24.7876L124.228 24.0806ZM122.588 8.28055L121.881 8.98755L121.89 8.99655L121.899 9.00555L122.588 8.28055ZM126.988 4.48055L126.274 5.18054L126.281 5.18755L126.988 4.48055ZM128.308 24.0806L129.015 24.7876L129.023 24.7796L129.031 24.7706L128.308 24.0806ZM128.068 28.8405C128.524 28.8405 128.883 28.9896 129.201 29.3076L130.615 27.8936C129.92 27.1986 129.052 26.8405 128.068 26.8405V28.8405ZM129.201 29.3076C129.527 29.6336 129.668 29.9825 129.668 30.4005H131.668C131.668 29.4325 131.302 28.5806 130.615 27.8936L129.201 29.3076ZM129.668 30.4005C129.668 30.8565 129.519 31.2156 129.201 31.5336L130.615 32.9476C131.31 32.2526 131.668 31.3845 131.668 30.4005H129.668ZM129.201 31.5336C128.883 31.8516 128.524 32.0005 128.068 32.0005V34.0005C129.052 34.0005 129.92 33.6426 130.615 32.9476L129.201 31.5336ZM128.068 32.0005H102.428V34.0005H128.068V32.0005ZM102.428 32.0005C101.972 32.0005 101.613 31.8516 101.295 31.5336L99.8812 32.9476C100.576 33.6426 101.444 34.0005 102.428 34.0005V32.0005ZM101.295 31.5336C100.977 31.2156 100.828 30.8565 100.828 30.4005H98.8282C98.8282 31.3845 99.1862 32.2526 99.8812 32.9476L101.295 31.5336ZM100.828 30.4005C100.828 29.9825 100.969 29.6336 101.295 29.3076L99.8812 27.8936C99.1942 28.5806 98.8282 29.4325 98.8282 30.4005H100.828ZM101.295 29.3076C101.613 28.9896 101.972 28.8405 102.428 28.8405V26.8405C101.444 26.8405 100.576 27.1986 99.8812 27.8936L101.295 29.3076ZM102.428 28.8405H128.068V26.8405H102.428V28.8405ZM126.268 23.9205C125.73 23.9205 125.306 23.7436 124.935 23.3736L123.521 24.7876C124.271 25.5376 125.206 25.9205 126.268 25.9205V23.9205ZM124.951 23.3905C124.566 22.9865 124.388 22.5395 124.388 22.0005H122.388C122.388 23.0615 122.77 24.0016 123.505 24.7706L124.951 23.3905ZM124.388 22.0005V10.1606H122.388V22.0005H124.388ZM124.388 10.1606C124.388 9.14455 124.012 8.25454 123.277 7.55554L121.899 9.00555C122.231 9.32055 122.388 9.68355 122.388 10.1606H124.388ZM123.295 7.57355C122.584 6.86255 121.707 6.48055 120.708 6.48055V8.48055C121.149 8.48055 121.525 8.63155 121.881 8.98755L123.295 7.57355ZM120.708 6.48055H103.988V8.48055H120.708V6.48055ZM103.988 6.48055C103.532 6.48055 103.173 6.33155 102.855 6.01355L101.441 7.42755C102.136 8.12255 103.004 8.48055 103.988 8.48055V6.48055ZM102.855 6.01355C102.529 5.68755 102.388 5.33855 102.388 4.92055H100.388C100.388 5.88855 100.754 6.74055 101.441 7.42755L102.855 6.01355ZM102.388 4.92055C102.388 4.46455 102.537 4.10555 102.855 3.78755L101.441 2.37355C100.746 3.06855 100.388 3.93655 100.388 4.92055H102.388ZM102.855 3.78755C103.173 3.46955 103.532 3.32056 103.988 3.32056V1.32056C103.004 1.32056 102.136 1.67855 101.441 2.37355L102.855 3.78755ZM103.988 3.32056H121.828V1.32056H103.988V3.32056ZM121.828 3.32056C123.588 3.32056 125.05 3.93354 126.274 5.18054L127.702 3.78055C126.099 2.14755 124.122 1.32056 121.828 1.32056V3.32056ZM126.281 5.18755C127.535 6.44155 128.148 7.92054 128.148 9.68054H130.148C130.148 7.38754 129.322 5.39954 127.695 3.77354L126.281 5.18755ZM128.148 9.68054V22.0005H130.148V9.68054H128.148ZM128.148 22.0005C128.148 22.5395 127.97 22.9865 127.585 23.3905L129.031 24.7706C129.766 24.0016 130.148 23.0615 130.148 22.0005H128.148ZM127.601 23.3736C127.231 23.7436 126.806 23.9205 126.268 23.9205V25.9205C127.33 25.9205 128.266 25.5376 129.015 24.7876L127.601 23.3736Z" fill="black"/>
</g>
</svg>
