<svg width="132" height="35" viewBox="0 0 132 35" fill="none" xmlns="http://www.w3.org/2000/svg">
<path d="M24.84 21.2C26.6533 21.2 28.1867 21.84 29.44 23.12C30.72 24.373 31.36 25.907 31.36 27.72C31.36 29.507 30.72 31.04 29.44 32.32C28.1867 33.6 26.6533 34.24 24.84 34.24H8.36C6.5467 34.24 5 33.6 3.72 32.32C2.44 31.04 1.8 29.507 1.8 27.72C1.8 25.907 2.44 24.373 3.72 23.12C5 21.84 6.5467 21.2 8.36 21.2H24.84ZM25.52 27.72C25.52 27.213 25.3333 26.787 24.96 26.44C24.6133 26.067 24.1867 25.88 23.68 25.88H9.48C8.9733 25.88 8.5467 26.067 8.2 26.44C7.8533 26.787 7.68 27.213 7.68 27.72C7.68 28.227 7.8533 28.667 8.2 29.04C8.5467 29.387 8.9733 29.56 9.48 29.56H23.68C24.1867 29.56 24.6133 29.387 24.96 29.04C25.3333 28.667 25.52 28.227 25.52 27.72ZM21.08 2C21.8 2 22.4133 2.25301 22.92 2.76001C23.4267 3.26701 23.68 3.88001 23.68 4.60001V8.60001H25.8V4.60001C25.8 3.88001 26.0533 3.26701 26.56 2.76001C27.0667 2.25301 27.68 2 28.4 2C29.0933 2 29.6933 2.25301 30.2 2.76001C30.7067 3.26701 30.96 3.88001 30.96 4.60001V17.76C30.96 18.48 30.7067 19.093 30.2 19.6C29.6933 20.107 29.0933 20.36 28.4 20.36C27.68 20.36 27.0667 20.107 26.56 19.6C26.0533 19.093 25.8 18.48 25.8 17.76V13.76H23.68V17.76C23.68 18.48 23.4267 19.093 22.92 19.6C22.4133 20.107 21.8 20.36 21.08 20.36C20.3867 20.36 19.7867 20.107 19.28 19.6C18.7733 19.093 18.52 18.48 18.52 17.76V4.60001C18.52 3.88001 18.7733 3.26701 19.28 2.76001C19.7867 2.25301 20.3867 2 21.08 2ZM3.68 19.96C2.9333 19.96 2.2933 19.707 1.76 19.2C1.2533 18.667 1 18.027 1 17.28V10C1 7.973 1.72 6.24 3.16 4.8C4.6 3.36 6.3333 2.64 8.36 2.64H14.44C15.16 2.64 15.7733 2.89301 16.28 3.40001C16.7867 3.90701 17.04 4.52001 17.04 5.24001C17.04 5.96001 16.7867 6.573 16.28 7.08C15.7733 7.56 15.16 7.8 14.44 7.8H9.48C8.7333 7.8 8.0933 8.06701 7.56 8.60001C7.0533 9.10701 6.8 9.733 6.8 10.48V14.8H14.44C15.16 14.8 15.7733 15.053 16.28 15.56C16.7867 16.067 17.04 16.667 17.04 17.36C17.04 18.08 16.7867 18.693 16.28 19.2C15.7733 19.707 15.16 19.96 14.44 19.96H3.68ZM57.848 21.2C59.661 21.2 61.194 21.84 62.448 23.12C63.728 24.373 64.368 25.907 64.368 27.72C64.368 29.507 63.728 31.04 62.448 32.32C61.194 33.6 59.661 34.24 57.848 34.24H41.3678C39.5545 34.24 38.0078 33.6 36.7278 32.32C35.4478 31.04 34.8078 29.507 34.8078 27.72C34.8078 25.907 35.4478 24.373 36.7278 23.12C38.0078 21.84 39.5545 21.2 41.3678 21.2H57.848ZM58.528 27.72C58.528 27.213 58.341 26.787 57.968 26.44C57.621 26.067 57.194 25.88 56.688 25.88H42.4878C41.9811 25.88 41.5545 26.067 41.2078 26.44C40.8611 26.787 40.6878 27.213 40.6878 27.72C40.6878 28.227 40.8611 28.667 41.2078 29.04C41.5545 29.387 41.9811 29.56 42.4878 29.56H56.688C57.194 29.56 57.621 29.387 57.968 29.04C58.341 28.667 58.528 28.227 58.528 27.72ZM54.0878 2C54.8078 2 55.4211 2.25301 55.928 2.76001C56.434 3.26701 56.688 3.88001 56.688 4.60001V8.60001H58.808V4.60001C58.808 3.88001 59.061 3.26701 59.568 2.76001C60.074 2.25301 60.688 2 61.408 2C62.101 2 62.701 2.25301 63.208 2.76001C63.714 3.26701 63.968 3.88001 63.968 4.60001V17.76C63.968 18.48 63.714 19.093 63.208 19.6C62.701 20.107 62.101 20.36 61.408 20.36C60.688 20.36 60.074 20.107 59.568 19.6C59.061 19.093 58.808 18.48 58.808 17.76V13.76H56.688V17.76C56.688 18.48 56.434 19.093 55.928 19.6C55.4211 20.107 54.8078 20.36 54.0878 20.36C53.3945 20.36 52.7945 20.107 52.2878 19.6C51.7811 19.093 51.5278 18.48 51.5278 17.76V4.60001C51.5278 3.88001 51.7811 3.26701 52.2878 2.76001C52.7945 2.25301 53.3945 2 54.0878 2ZM36.6878 19.96C35.9411 19.96 35.3011 19.707 34.7678 19.2C34.2611 18.667 34.0078 18.027 34.0078 17.28V10C34.0078 7.973 34.7278 6.24 36.1678 4.8C37.6078 3.36 39.3411 2.64 41.3678 2.64H47.4478C48.1678 2.64 48.7811 2.89301 49.2878 3.40001C49.7945 3.90701 50.0478 4.52001 50.0478 5.24001C50.0478 5.96001 49.7945 6.573 49.2878 7.08C48.7811 7.56 48.1678 7.8 47.4478 7.8H42.4878C41.7411 7.8 41.1011 8.06701 40.5678 8.60001C40.0611 9.10701 39.8078 9.733 39.8078 10.48V14.8H47.4478C48.1678 14.8 48.7811 15.053 49.2878 15.56C49.7945 16.067 50.0478 16.667 50.0478 17.36C50.0478 18.08 49.7945 18.693 49.2878 19.2C48.7811 19.707 48.1678 19.96 47.4478 19.96H36.6878ZM69.536 33.44C68.816 33.44 68.202 33.187 67.696 32.68C67.189 32.173 66.936 31.56 66.936 30.84C66.936 30.147 67.189 29.547 67.696 29.04C68.202 28.533 68.816 28.28 69.536 28.28H79.456V24.52H71.176C70.429 24.52 69.789 24.267 69.256 23.76C68.749 23.227 68.496 22.587 68.496 21.84V13.68C68.496 12.96 68.749 12.347 69.256 11.84C69.789 11.307 70.429 11.04 71.176 11.04H90.456V10.64C90.456 9.92 90.189 9.307 89.656 8.8C89.149 8.267 88.522 8 87.776 8L71.056 7.96001C70.362 7.96001 69.762 7.72001 69.256 7.24001C68.749 6.73301 68.496 6.12001 68.496 5.40001C68.496 4.68001 68.749 4.067 69.256 3.56C69.762 3.053 70.362 2.8 71.056 2.8L88.896 2.84C90.922 2.84 92.642 3.56 94.056 5C95.496 6.413 96.216 8.133 96.216 10.16V13.52C96.216 14.267 95.949 14.907 95.416 15.44C94.909 15.947 94.296 16.2 93.576 16.2H74.296V19.36H94.016C94.736 19.36 95.349 19.613 95.856 20.12C96.362 20.627 96.616 21.24 96.616 21.96C96.616 22.653 96.362 23.253 95.856 23.76C95.349 24.267 94.736 24.52 94.016 24.52H85.256V28.28H95.176C95.896 28.28 96.509 28.533 97.016 29.04C97.522 29.547 97.776 30.147 97.776 30.84C97.776 31.56 97.522 32.173 97.016 32.68C96.509 33.187 95.896 33.44 95.176 33.44H69.536ZM127.868 28.28C128.588 28.28 129.201 28.533 129.708 29.04C130.215 29.547 130.468 30.147 130.468 30.84C130.468 31.56 130.215 32.173 129.708 32.68C129.201 33.187 128.588 33.44 127.868 33.44H102.228C101.508 33.44 100.895 33.187 100.388 32.68C99.881 32.173 99.628 31.56 99.628 30.84C99.628 30.147 99.881 29.547 100.388 29.04C100.895 28.533 101.508 28.28 102.228 28.28H127.868ZM126.068 25.36C125.268 25.36 124.588 25.08 124.028 24.52C123.468 23.933 123.188 23.24 123.188 22.44V10.6C123.188 9.85301 122.921 9.227 122.388 8.72C121.855 8.187 121.228 7.92 120.508 7.92H103.788C103.068 7.92 102.455 7.667 101.948 7.16C101.441 6.653 101.188 6.053 101.188 5.36C101.188 4.64 101.441 4.027 101.948 3.52C102.455 3.013 103.068 2.76001 103.788 2.76001H121.628C123.655 2.76001 125.375 3.48 126.788 4.92C128.228 6.36 128.948 8.093 128.948 10.12V22.44C128.948 23.24 128.668 23.933 128.108 24.52C127.548 25.08 126.868 25.36 126.068 25.36Z" fill="#F59E0B"/>
</svg>
